<?xml version="1.0"?>
<!-- Generator: Adobe Illustrator 19.0.0, SVG Export Plug-In . SVG Version: 6.00 Build 0)  -->
<svg version="1.1" id="Capa_1" xmlns="http://www.w3.org/2000/svg" xmlns:xlink="http://www.w3.org/1999/xlink" x="0px" y="0px"
	 viewBox="0 0 512 512" style="enable-background:new 0 0 512 512;" xml:space="preserve">
<g>
	<path style="fill:#F0C419;" d="M308.966,194.207L150.069,79.448l-88.276,97.103l-13.977-1.471l0.736,102.989v167.724
		c0.029,9.739,7.916,17.627,17.655,17.655H512V88.276L308.966,194.207z"/>
	<path style="fill:#3B97D3;" d="M512,450.207v44.138c-0.029,9.739-7.916,17.627-17.655,17.655H17.655
		C7.916,511.971,0.029,504.084,0,494.345V17.655C0.028,7.916,7.916,0.028,17.655,0h26.483c9.739,0.028,17.627,7.916,17.655,17.655
		v414.897c0.029,9.739,7.916,17.626,17.655,17.655H512z"/>
	<path style="fill:#955BA5;" d="M512,353.103v97.103H79.448c-9.739-0.029-17.627-7.916-17.655-17.655v-52.966l185.379-61.793
		l132.414,70.621L512,353.103z"/>
	<polygon style="fill:#E64C3C;" points="512,79.448 512,220.69 370.759,291.31 211.862,211.862 61.793,264.828 61.793,167.724 
		150.069,70.621 308.966,185.379 	"/>
</g>
<g>
</g>
<g>
</g>
<g>
</g>
<g>
</g>
<g>
</g>
<g>
</g>
<g>
</g>
<g>
</g>
<g>
</g>
<g>
</g>
<g>
</g>
<g>
</g>
<g>
</g>
<g>
</g>
<g>
</g>
</svg>
