<?xml version="1.0" encoding="iso-8859-1"?>
<!-- Generator: Adobe Illustrator 19.0.0, SVG Export Plug-In . SVG Version: 6.00 Build 0)  -->
<svg version="1.1" id="Layer_1" xmlns="http://www.w3.org/2000/svg" xmlns:xlink="http://www.w3.org/1999/xlink" x="0px" y="0px"
	 viewBox="0 0 496.158 496.158" style="enable-background:new 0 0 496.158 496.158;" xml:space="preserve">
<path style="fill:#E04F5F;" d="M496.158,248.085c0-137.021-111.07-248.082-248.076-248.082C111.07,0.003,0,111.063,0,248.085
	c0,137.002,111.07,248.07,248.082,248.07C385.088,496.155,496.158,385.087,496.158,248.085z"/>
<path style="fill:#FFFFFF;" d="M277.042,248.082l72.528-84.196c7.91-9.182,6.876-23.041-2.31-30.951
	c-9.172-7.904-23.032-6.876-30.947,2.306l-68.236,79.212l-68.229-79.212c-7.91-9.188-21.771-10.216-30.954-2.306
	c-9.186,7.91-10.214,21.77-2.304,30.951l72.522,84.196l-72.522,84.192c-7.91,9.182-6.882,23.041,2.304,30.951
	c4.143,3.569,9.241,5.318,14.316,5.318c6.161,0,12.294-2.586,16.638-7.624l68.229-79.212l68.236,79.212
	c4.338,5.041,10.47,7.624,16.637,7.624c5.069,0,10.168-1.749,14.311-5.318c9.186-7.91,10.22-21.77,2.31-30.951L277.042,248.082z"/>
<g>
</g>
<g>
</g>
<g>
</g>
<g>
</g>
<g>
</g>
<g>
</g>
<g>
</g>
<g>
</g>
<g>
</g>
<g>
</g>
<g>
</g>
<g>
</g>
<g>
</g>
<g>
</g>
<g>
</g>
</svg>
