<?xml version="1.0"?>
<!-- Generator: Adobe Illustrator 19.0.0, SVG Export Plug-In . SVG Version: 6.00 Build 0)  -->
<svg version="1.1" id="Capa_1" xmlns="http://www.w3.org/2000/svg" xmlns:xlink="http://www.w3.org/1999/xlink" x="0px" y="0px"
	 viewBox="0 0 512 512" style="enable-background:new 0 0 512 512;" xml:space="preserve">
<circle style="fill:#ECF0F9;" cx="256" cy="256" r="209.455"/>
<polygon style="fill:#D5E3EF;" points="232.727,232.727 128,407.273 302.545,302.545 407.273,128 "/>
<path style="fill:#595A66;" d="M256,0C114.036,0,0,114.036,0,256s114.036,256,256,256s256-114.036,256-256S397.964,0,256,0z
	 M256,465.455C140.8,465.455,46.545,371.2,46.545,256S140.8,46.545,256,46.545S465.455,140.8,465.455,256S371.2,465.455,256,465.455
	z"/>
<path style="fill:#D5E3EF;" d="M64,273.455C64,158.255,158.255,64,273.455,64c53.527,0,102.4,19.782,138.473,53.527
	C373.527,73.309,318.836,46.545,256,46.545C140.8,46.545,46.545,140.8,46.545,256c0,62.836,26.764,117.527,70.982,155.927
	C83.782,375.855,64,326.982,64,273.455z"/>
<path style="fill:#595A66;" d="M58.182,267.636H11.636C4.655,267.636,0,262.982,0,256l0,0c0-6.982,4.655-11.636,11.636-11.636
	h46.545c6.982,0,11.636,4.655,11.636,11.636l0,0C69.818,262.982,65.164,267.636,58.182,267.636z"/>
<path style="fill:#494A52;" d="M47.709,244.364c-1.164,3.491-1.164,8.145-1.164,11.636c0,3.491,0,8.145,1.164,11.636h10.473
	c2.327,0,4.655-1.164,5.818-2.327c0-5.818,1.164-12.8,1.164-18.618c-1.164-1.164-3.491-2.327-6.982-2.327H47.709z"/>
<g>
	<path style="fill:#595A66;" d="M500.364,267.636h-46.545c-6.982,0-11.636-4.655-11.636-11.636l0,0
		c0-6.982,4.655-11.636,11.636-11.636h46.545c6.982,0,11.636,4.655,11.636,11.636l0,0C512,262.982,507.345,267.636,500.364,267.636z
		"/>
	<path style="fill:#595A66;" d="M244.364,58.182V11.636C244.364,4.655,249.018,0,256,0l0,0c6.982,0,11.636,4.655,11.636,11.636
		v46.545c0,6.982-4.655,11.636-11.636,11.636l0,0C249.018,69.818,244.364,65.164,244.364,58.182z"/>
</g>
<path style="fill:#494A52;" d="M256,46.545c-3.491,0-8.145,0-11.636,1.164v10.473c0,3.491,1.164,5.818,3.491,8.145
	c5.818-1.164,11.636-1.164,18.618-1.164c0-2.327,1.164-4.655,1.164-6.982V47.709C264.145,46.545,259.491,46.545,256,46.545z"/>
<path style="fill:#595A66;" d="M244.364,500.364v-46.545c0-6.982,4.655-11.636,11.636-11.636l0,0
	c6.982,0,11.636,4.655,11.636,11.636v46.545c0,6.982-4.655,11.636-11.636,11.636l0,0C249.018,512,244.364,507.345,244.364,500.364z"
	/>
<path style="fill:#B0C4D9;" d="M256,384c-6.982,0-11.636-4.655-11.636-11.636V139.636c0-6.982,4.655-11.636,11.636-11.636
	c6.982,0,11.636,4.655,11.636,11.636v232.727C267.636,379.345,262.982,384,256,384z"/>
<polygon style="fill:#89ABC6;" points="244.364,336.291 267.636,322.327 267.636,212.945 244.364,225.745 "/>
<path style="fill:#B0C4D9;" d="M313.018,313.018c-4.655,4.655-11.636,4.655-16.291,0l-98.909-98.909
	c-4.655-4.655-4.655-11.636,0-16.291s11.636-4.655,16.291,0l98.909,98.909C317.673,301.382,317.673,309.527,313.018,313.018z"/>
<polygon style="fill:#89ABC6;" points="292.073,308.364 302.545,302.545 308.364,292.073 243.2,226.909 232.727,232.727 
	226.909,243.2 "/>
<path style="fill:#B0C4D9;" d="M128,256c0-6.982,4.655-11.636,11.636-11.636h232.727c6.982,0,11.636,4.655,11.636,11.636
	c0,6.982-4.655,11.636-11.636,11.636H139.636C132.655,267.636,128,262.982,128,256z"/>
<polygon style="fill:#89ABC6;" points="212.945,267.636 322.327,267.636 336.291,244.364 225.745,244.364 "/>
<polygon style="fill:#F04B4D;" points="290.909,290.909 221.091,221.091 395.636,116.364 "/>
<polygon style="fill:#4C9CD6;" points="221.091,221.091 290.909,290.909 116.364,395.636 "/>
<polygon style="fill:#70B7E5;" points="221.091,221.091 116.364,395.636 256,256 "/>
<polygon style="fill:#F26A56;" points="256,256 395.636,116.364 221.091,221.091 "/>
<circle style="fill:#595A66;" cx="256" cy="256" r="23.273"/>
<path style="fill:#494A52;" d="M265.309,235.055c1.164,3.491,2.327,5.818,2.327,9.309c0,12.8-10.473,23.273-23.273,23.273
	c-3.491,0-6.982-1.164-9.309-2.327c3.491,8.145,11.636,13.964,20.945,13.964c12.8,0,23.273-10.473,23.273-23.273
	C279.273,246.691,273.455,238.545,265.309,235.055z"/>
<path style="fill:#6F707E;" d="M256,0L256,0C114.036,0,0,114.036,0,256l0,0c12.8,0,23.273-9.309,24.436-22.109
	C30.255,178.036,54.691,126.836,93.091,89.6c37.236-36.073,86.109-60.509,140.8-65.164C246.691,23.273,256,12.8,256,0z"/>
<path style="fill:#494A52;" d="M256,512L256,512c141.964,0,256-114.036,256-256l0,0c-12.8,0-23.273,9.309-24.436,22.109
	c-4.655,54.691-29.091,103.564-65.164,140.8c-37.236,38.4-87.273,62.836-144.291,68.655C265.309,488.727,256,499.2,256,512z"/>
<circle style="fill:#6F707E;" cx="250.182" cy="250.182" r="5.818"/>
<g>
</g>
<g>
</g>
<g>
</g>
<g>
</g>
<g>
</g>
<g>
</g>
<g>
</g>
<g>
</g>
<g>
</g>
<g>
</g>
<g>
</g>
<g>
</g>
<g>
</g>
<g>
</g>
<g>
</g>
</svg>
