<?xml version="1.0" encoding="iso-8859-1"?>
<!-- Generator: Adobe Illustrator 18.0.0, SVG Export Plug-In . SVG Version: 6.00 Build 0)  -->
<!DOCTYPE svg PUBLIC "-//W3C//DTD SVG 1.1//EN" "http://www.w3.org/Graphics/SVG/1.1/DTD/svg11.dtd">
<svg version="1.1" id="Capa_1" xmlns="http://www.w3.org/2000/svg" xmlns:xlink="http://www.w3.org/1999/xlink" x="0px" y="0px"
	 viewBox="0 0 426 426" style="enable-background:new 0 0 426 426;" xml:space="preserve">
<path style="fill:#1A1A1A;" d="M94.077,69.152h237.846c13.765,0,24.925,11.159,24.925,24.925v237.846
	c0,13.765-11.159,24.925-24.925,24.925H94.077c-13.765,0-24.925-11.159-24.925-24.925V94.077
	C69.152,80.312,80.311,69.152,94.077,69.152z"/>
<path style="fill:#4D4D4D;" d="M305.742,69.152H94.077c-13.765,0-24.925,11.159-24.925,24.925v237.846
	c0,13.765,11.159,24.925,24.925,24.925h37.611L305.742,69.152z"/>
<g>
	<path style="fill:#C4C2B7;" d="M120.238,97.974c-5.523,0-10-4.477-10-10V10c0-5.523,4.477-10,10-10s10,4.477,10,10v77.974
		C130.238,93.497,125.761,97.974,120.238,97.974z"/>
	<path style="fill:#C4C2B7;" d="M166.619,97.974c-5.523,0-10-4.477-10-10V10c0-5.523,4.477-10,10-10s10,4.477,10,10v77.974
		C176.619,93.497,172.142,97.974,166.619,97.974z"/>
	<path style="fill:#C4C2B7;" d="M213,97.974c-5.523,0-10-4.477-10-10V10c0-5.523,4.477-10,10-10s10,4.477,10,10v77.974
		C223,93.497,218.523,97.974,213,97.974z"/>
	<path style="fill:#C4C2B7;" d="M259.38,97.974c-5.523,0-10-4.477-10-10V10c0-5.523,4.477-10,10-10s10,4.477,10,10v77.974
		C269.38,93.497,264.903,97.974,259.38,97.974z"/>
	<path style="fill:#C4C2B7;" d="M305.761,97.974c-5.523,0-10-4.477-10-10V10c0-5.523,4.477-10,10-10s10,4.477,10,10v77.974
		C315.761,93.497,311.284,97.974,305.761,97.974z"/>
	<path style="fill:#C4C2B7;" d="M120.238,426c-5.523,0-10-4.477-10-10v-77.973c0-5.523,4.477-10,10-10s10,4.477,10,10V416
		C130.238,421.523,125.761,426,120.238,426z"/>
	<path style="fill:#C4C2B7;" d="M166.619,426c-5.523,0-10-4.477-10-10v-77.973c0-5.523,4.477-10,10-10s10,4.477,10,10V416
		C176.619,421.523,172.142,426,166.619,426z"/>
	<path style="fill:#C4C2B7;" d="M213,426c-5.523,0-10-4.477-10-10v-77.973c0-5.523,4.477-10,10-10s10,4.477,10,10V416
		C223,421.523,218.523,426,213,426z"/>
	<path style="fill:#C4C2B7;" d="M259.38,426c-5.523,0-10-4.477-10-10v-77.973c0-5.523,4.477-10,10-10s10,4.477,10,10V416
		C269.38,421.523,264.903,426,259.38,426z"/>
	<path style="fill:#C4C2B7;" d="M305.761,426c-5.523,0-10-4.477-10-10v-77.973c0-5.523,4.477-10,10-10s10,4.477,10,10V416
		C315.761,421.523,311.284,426,305.761,426z"/>
	<path style="fill:#C4C2B7;" d="M416,130.239h-77.974c-5.523,0-10-4.477-10-10s4.477-10,10-10H416c5.523,0,10,4.477,10,10
		S421.523,130.239,416,130.239z"/>
	<path style="fill:#C4C2B7;" d="M416,176.619h-77.974c-5.523,0-10-4.477-10-10s4.477-10,10-10H416c5.523,0,10,4.477,10,10
		S421.523,176.619,416,176.619z"/>
	<path style="fill:#C4C2B7;" d="M416,223h-77.974c-5.523,0-10-4.477-10-10s4.477-10,10-10H416c5.523,0,10,4.477,10,10
		S421.523,223,416,223z"/>
	<path style="fill:#C4C2B7;" d="M416,269.381h-77.974c-5.523,0-10-4.477-10-10s4.477-10,10-10H416c5.523,0,10,4.477,10,10
		S421.523,269.381,416,269.381z"/>
	<path style="fill:#C4C2B7;" d="M416,315.762h-77.974c-5.523,0-10-4.477-10-10s4.477-10,10-10H416c5.523,0,10,4.477,10,10
		S421.523,315.762,416,315.762z"/>
	<path style="fill:#C4C2B7;" d="M87.973,130.239H10c-5.523,0-10-4.477-10-10s4.477-10,10-10h77.973c5.523,0,10,4.477,10,10
		S93.496,130.239,87.973,130.239z"/>
	<path style="fill:#C4C2B7;" d="M87.973,176.619H10c-5.523,0-10-4.477-10-10s4.477-10,10-10h77.973c5.523,0,10,4.477,10,10
		S93.496,176.619,87.973,176.619z"/>
	<path style="fill:#C4C2B7;" d="M87.973,223H10c-5.523,0-10-4.477-10-10s4.477-10,10-10h77.973c5.523,0,10,4.477,10,10
		S93.496,223,87.973,223z"/>
	<path style="fill:#C4C2B7;" d="M87.973,269.381H10c-5.523,0-10-4.477-10-10s4.477-10,10-10h77.973c5.523,0,10,4.477,10,10
		S93.496,269.381,87.973,269.381z"/>
	<path style="fill:#C4C2B7;" d="M87.973,315.762H10c-5.523,0-10-4.477-10-10s4.477-10,10-10h77.973c5.523,0,10,4.477,10,10
		S93.496,315.762,87.973,315.762z"/>
</g>
<rect x="159.225" y="159.225" style="fill:#CCCCCC;" width="107.55" height="107.55"/>
<g>
</g>
<g>
</g>
<g>
</g>
<g>
</g>
<g>
</g>
<g>
</g>
<g>
</g>
<g>
</g>
<g>
</g>
<g>
</g>
<g>
</g>
<g>
</g>
<g>
</g>
<g>
</g>
<g>
</g>
</svg>
