<?xml version="1.0" encoding="UTF-8" standalone="no"?>
<svg
   xmlns:dc="http://purl.org/dc/elements/1.1/"
   xmlns:cc="http://creativecommons.org/ns#"
   xmlns:rdf="http://www.w3.org/1999/02/22-rdf-syntax-ns#"
   xmlns:svg="http://www.w3.org/2000/svg"
   xmlns="http://www.w3.org/2000/svg"
   xmlns:sodipodi="http://sodipodi.sourceforge.net/DTD/sodipodi-0.dtd"
   xmlns:inkscape="http://www.inkscape.org/namespaces/inkscape"
   id="icons"
   enable-background="new 0 0 64 64"
   height="384.01599"
   viewBox="0 0 54.995998 48.001999"
   width="439.96799"
   version="1.1"
   sodipodi:docname="led.svg"
   inkscape:version="0.92.5 (2060ec1f9f, 2020-04-08)">
  <metadata
     id="metadata1048">
    <rdf:RDF>
      <cc:Work
         rdf:about="">
        <dc:format>image/svg+xml</dc:format>
        <dc:type
           rdf:resource="http://purl.org/dc/dcmitype/StillImage" />
        <dc:title></dc:title>
      </cc:Work>
    </rdf:RDF>
  </metadata>
  <defs
     id="defs1046" />
  <sodipodi:namedview
     pagecolor="#ffffff"
     bordercolor="#666666"
     borderopacity="1"
     objecttolerance="10"
     gridtolerance="10"
     guidetolerance="10"
     inkscape:pageopacity="0"
     inkscape:pageshadow="2"
     inkscape:window-width="1848"
     inkscape:window-height="1016"
     id="namedview1044"
     showgrid="false"
     inkscape:zoom="1.1573349"
     inkscape:cx="275.62391"
     inkscape:cy="81.509562"
     inkscape:window-x="72"
     inkscape:window-y="27"
     inkscape:window-maximized="1"
     inkscape:current-layer="icons"
     fit-margin-top="0"
     fit-margin-left="0"
     fit-margin-right="0"
     fit-margin-bottom="0" />
  <path
     d="m 46.996,48.002 c -0.553,0 -1,-0.2235 -1,-0.5 V 32.504 c 0,-0.2765 0.447,-0.5 1,-0.5 0.553,0 1,0.2235 1,0.5 v 14.998 c 0,0.2765 -0.447,0.5 -1,0.5 z"
     id="path961"
     inkscape:connector-curvature="0"
     style="fill:#ccd1d9;stroke-width:0.70710677" />
  <path
     d="m 37,48.002 c -0.553,0 -1,-0.2235 -1,-0.5 V 32.504 c 0,-0.2765 0.447,-0.5 1,-0.5 0.553,0 1,0.2235 1,0.5 v 14.998 c 0,0.2765 -0.447,0.5 -1,0.5 z"
     id="path963"
     inkscape:connector-curvature="0"
     style="fill:#ccd1d9;stroke-width:0.70710677" />
  <path
     d="m 36.998,30 h 3 7 5 0.5 c 0.83,0 1.5,0.67 1.5,1.5 0,0.83 -0.67,1.5 -1.5,1.5 h -5.5 -10 -5.5 c -0.83,0 -1.5,-0.67 -1.5,-1.5 0,-0.83 0.67,-1.5 1.5,-1.5 h 0.5 z"
     id="path965"
     inkscape:connector-curvature="0"
     style="fill:#ed5565" />
  <path
     d="m 39.998,24 v 6 h -3 v -8 z"
     id="path967"
     inkscape:connector-curvature="0"
     style="fill:#ce2c3f" />
  <path
     d="m 46.998,17 v 8 l -6,-4 v -4 z"
     id="path969"
     inkscape:connector-curvature="0"
     style="fill:#ce2c3f" />
  <path
     d="m 46.998,25 v -8 h -6 v 4 z m 0,5 h -7 v -6 l -3,-2 v 8 h -5 V 11 10.99 c 0.01,-5.53 4.48,-9.99 10,-9.99 5.52,0 9.99,4.46 10,9.99 V 11 30 Z"
     id="path971"
     inkscape:connector-curvature="0"
     style="fill:#da4453" />
  <path
     d="m 17.998,22 v 8 h -3 v -6 z"
     id="path973"
     inkscape:connector-curvature="0"
     style="fill:#aab2bd" />
  <path
     d="m 13.998,17 v 4 l -6,4 v -8 z"
     id="path975"
     inkscape:connector-curvature="0"
     style="fill:#aab2bd" />
  <path
     d="m 23.498,30 c 0.83,0 1.5,0.67 1.5,1.5 0,0.83 -0.67,1.5 -1.5,1.5 h -5.5 -10 -5.5 c -0.83,0 -1.5,-0.67 -1.5,-1.5 0,-0.83 0.67,-1.5 1.5,-1.5 h 0.5 5 7 3 5 z"
     id="path977"
     inkscape:connector-curvature="0"
     style="fill:#e6e9ed" />
  <path
     d="m 7.998,25 6,-4 v -4 h -6 z m 10,-3 -3,2 v 6 h -7 -5 V 11 10.99 C 3.008,5.46 7.478,1 12.998,1 c 5.52,0 9.99,4.46 10,9.99 V 11 30 h -5 z"
     id="path979"
     inkscape:connector-curvature="0"
     style="fill:#ccd1d9" />
  <path
     d="m 22.998,12 c -0.553,0 -1,-0.447 -1,-1 0,-4.963 -4.037,-9 -9,-9 -4.963,0 -9,4.037 -9,9 0,0.553 -0.447,1 -1,1 -0.553,0 -1,-0.447 -1,-1 0,-6.065 4.934,-11 11,-11 6.064,0 11,4.935 11,11 0,0.553 -0.447,1 -1,1 z"
     id="path981"
     inkscape:connector-curvature="0"
     style="fill:#ccd1d9" />
  <path
     d="m 3,31.005 c -0.553,0 -1,-0.447 -1,-1 V 10.998 c 0,-0.553 0.447,-1 1,-1 0.553,0 1,0.447 1,1 v 19.007 c 0,0.553 -0.447,1 -1,1 z"
     id="path983"
     inkscape:connector-curvature="0"
     style="fill:#ccd1d9" />
  <path
     d="m 22.996,31.005 c -0.553,0 -1,-0.447 -1,-1 V 10.998 c 0,-0.553 0.447,-1 1,-1 0.553,0 1,0.447 1,1 v 19.007 c 0,0.553 -0.447,1 -1,1 z"
     id="path985"
     inkscape:connector-curvature="0"
     style="fill:#ccd1d9" />
  <path
     d="m 8,31.005 c -0.553,0 -1,-0.447 -1,-1 V 16 c 0,-0.553 0.447,-1 1,-1 0.553,0 1,0.447 1,1 v 14.005 c 0,0.553 -0.447,1 -1,1 z"
     id="path987"
     inkscape:connector-curvature="0"
     style="fill:#aab2bd" />
  <path
     d="M 13.998,18 H 8 C 7.447,18 7,17.553 7,17 7,16.447 7.447,16 8,16 h 5.998 c 0.553,0 1,0.447 1,1 0,0.553 -0.447,1 -1,1 z"
     id="path989"
     inkscape:connector-curvature="0"
     style="fill:#aab2bd" />
  <path
     d="m 13.998,22 c -0.553,0 -1,-0.447 -1,-1 v -4 c 0,-0.553 0.447,-1 1,-1 0.553,0 1,0.447 1,1 v 4 c 0,0.553 -0.447,1 -1,1 z"
     id="path991"
     inkscape:connector-curvature="0"
     style="fill:#aab2bd" />
  <path
     d="M 8.002,26 C 7.678,26 7.361,25.844 7.168,25.555 6.861,25.096 6.986,24.475 7.445,24.168 l 5.998,-4 c 0.457,-0.307 1.08,-0.183 1.387,0.277 0.307,0.459 0.182,1.08 -0.277,1.387 l -5.998,4 C 8.385,25.945 8.191,26 8.002,26 Z"
     id="path993"
     inkscape:connector-curvature="0"
     style="fill:#aab2bd" />
  <path
     d="m 17.996,31.005 c -0.553,0 -1,-0.447 -1,-1 V 16 c 0,-0.553 0.447,-1 1,-1 0.553,0 1,0.447 1,1 v 14.005 c 0,0.553 -0.447,1 -1,1 z"
     id="path995"
     inkscape:connector-curvature="0"
     style="fill:#aab2bd" />
  <path
     d="m 14.998,31.005 c -0.553,0 -1,-0.447 -1,-1 V 24 c 0,-0.553 0.447,-1 1,-1 0.553,0 1,0.447 1,1 v 6.005 c 0,0.553 -0.447,1 -1,1 z"
     id="path997"
     inkscape:connector-curvature="0"
     style="fill:#aab2bd" />
  <path
     d="m 14.998,25 c -0.322,0 -0.641,-0.156 -0.832,-0.445 -0.307,-0.46 -0.184,-1.08 0.277,-1.387 l 2.998,-1.999 c 0.461,-0.307 1.082,-0.183 1.387,0.277 0.307,0.46 0.184,1.08 -0.277,1.387 l -2.998,1.999 C 15.381,24.945 15.189,25 14.998,25 Z"
     id="path999"
     inkscape:connector-curvature="0"
     style="fill:#aab2bd" />
  <path
     d="m 8,48.002 c -0.553,0 -1,-0.2235 -1,-0.5 V 32.504 c 0,-0.2765 0.447,-0.5 1,-0.5 0.553,0 1,0.2235 1,0.5 v 14.998 c 0,0.2765 -0.447,0.5 -1,0.5 z"
     id="path1001"
     inkscape:connector-curvature="0"
     style="fill:#ccd1d9;stroke-width:0.70710677" />
  <path
     d="m 17.996,48.002 c -0.553,0 -1,-0.2235 -1,-0.5 V 32.504 c 0,-0.2765 0.447,-0.5 1,-0.5 0.553,0 1,0.2235 1,0.5 v 14.998 c 0,0.2765 -0.447,0.5 -1,0.5 z"
     id="path1003"
     inkscape:connector-curvature="0"
     style="fill:#ccd1d9;stroke-width:0.70710677" />
  <path
     d="m 51.998,12 c -0.553,0 -1,-0.447 -1,-1 0,-4.963 -4.037,-9 -9,-9 -4.963,0 -9,4.037 -9,9 0,0.553 -0.447,1 -1,1 -0.553,0 -1,-0.447 -1,-1 0,-6.065 4.936,-11 11,-11 6.066,0 11,4.935 11,11 0,0.553 -0.447,1 -1,1 z"
     id="path1005"
     inkscape:connector-curvature="0"
     style="fill:#da4453" />
  <path
     d="m 51.996,31.005 c -0.553,0 -1,-0.447 -1,-1 V 10.998 c 0,-0.553 0.447,-1 1,-1 0.553,0 1,0.447 1,1 v 19.007 c 0,0.553 -0.447,1 -1,1 z"
     id="path1007"
     inkscape:connector-curvature="0"
     style="fill:#da4453" />
  <path
     d="m 32,31.005 c -0.553,0 -1,-0.447 -1,-1 V 10.998 c 0,-0.553 0.447,-1 1,-1 0.553,0 1,0.447 1,1 v 19.007 c 0,0.553 -0.447,1 -1,1 z"
     id="path1009"
     inkscape:connector-curvature="0"
     style="fill:#da4453" />
  <path
     d="m 52.496,34.005 c -0.553,0 -1,-0.447 -1,-1 0,-0.553 0.447,-1 1,-1 0.275,0 0.5,-0.225 0.5,-0.5 0,-0.275 -0.225,-0.5 -0.5,-0.5 -0.553,0 -1,-0.447 -1,-1 0,-0.553 0.447,-1 1,-1 1.379,0 2.5,1.121 2.5,2.5 0,1.379 -1.121,2.5 -2.5,2.5 z"
     id="path1011"
     inkscape:connector-curvature="0"
     style="fill:#ed5565" />
  <path
     d="m 31.5,34.005 c -1.379,0 -2.5,-1.121 -2.5,-2.5 0,-1.379 1.121,-2.5 2.5,-2.5 0.553,0 1,0.447 1,1 0,0.553 -0.447,1 -1,1 -0.275,0 -0.5,0.225 -0.5,0.5 0,0.275 0.225,0.5 0.5,0.5 0.553,0 1,0.447 1,1 0,0.553 -0.447,1 -1,1 z"
     id="path1013"
     inkscape:connector-curvature="0"
     style="fill:#ed5565" />
  <path
     d="M 52.496,34.004 H 31.5 c -0.553,0 -1,-0.447 -1,-1 0,-0.553 0.447,-1 1,-1 h 20.996 c 0.553,0 1,0.447 1,1 0,0.553 -0.447,1 -1,1 z"
     id="path1015"
     inkscape:connector-curvature="0"
     style="fill:#ed5565" />
  <g
     id="g1031"
     style="fill:#ce2c3f"
     transform="translate(-4.502)">
    <path
       d="m 51.498,31.005 c -0.553,0 -1,-0.447 -1,-1 V 16 c 0,-0.553 0.447,-1 1,-1 0.553,0 1,0.447 1,1 v 14.005 c 0,0.553 -0.447,1 -1,1 z"
       id="path1017"
       inkscape:connector-curvature="0" />
    <path
       d="M 51.498,18 H 45.5 c -0.553,0 -1,-0.447 -1,-1 0,-0.553 0.447,-1 1,-1 h 5.998 c 0.553,0 1,0.447 1,1 0,0.553 -0.447,1 -1,1 z"
       id="path1019"
       inkscape:connector-curvature="0" />
    <path
       d="m 45.5,22 c -0.553,0 -1,-0.447 -1,-1 v -4 c 0,-0.553 0.447,-1 1,-1 0.553,0 1,0.447 1,1 v 4 c 0,0.553 -0.447,1 -1,1 z"
       id="path1021"
       inkscape:connector-curvature="0" />
    <path
       d="m 51.496,26 c -0.189,0 -0.383,-0.055 -0.553,-0.168 l -5.998,-4 c -0.459,-0.307 -0.584,-0.928 -0.277,-1.387 0.307,-0.46 0.928,-0.584 1.387,-0.277 l 5.998,4 c 0.459,0.307 0.584,0.928 0.277,1.387 C 52.137,25.844 51.82,26 51.496,26 Z"
       id="path1023"
       inkscape:connector-curvature="0" />
    <path
       d="m 41.502,31.005 c -0.553,0 -1,-0.447 -1,-1 V 16 c 0,-0.553 0.447,-1 1,-1 0.553,0 1,0.447 1,1 v 14.005 c 0,0.553 -0.447,1 -1,1 z"
       id="path1025"
       inkscape:connector-curvature="0" />
    <path
       d="m 44.5,31.005 c -0.553,0 -1,-0.447 -1,-1 V 24 c 0,-0.553 0.447,-1 1,-1 0.553,0 1,0.447 1,1 v 6.005 c 0,0.553 -0.447,1 -1,1 z"
       id="path1027"
       inkscape:connector-curvature="0" />
    <path
       d="m 44.5,25 c -0.191,0 -0.383,-0.055 -0.555,-0.168 l -2.998,-1.999 c -0.461,-0.307 -0.584,-0.927 -0.277,-1.387 0.305,-0.46 0.926,-0.584 1.387,-0.277 l 2.998,1.999 c 0.461,0.307 0.584,0.927 0.277,1.387 C 45.141,24.844 44.822,25 44.5,25 Z"
       id="path1029"
       inkscape:connector-curvature="0" />
  </g>
  <path
     d="m 2.5,34.005 c -1.379,0 -2.5,-1.121 -2.5,-2.5 0,-1.379 1.121,-2.5 2.5,-2.5 0.553,0 1,0.447 1,1 0,0.553 -0.447,1 -1,1 -0.275,0 -0.5,0.225 -0.5,0.5 0,0.275 0.225,0.5 0.5,0.5 0.553,0 1,0.447 1,1 0,0.553 -0.447,1 -1,1 z"
     id="path1033"
     inkscape:connector-curvature="0"
     style="fill:#e6e9ed" />
  <path
     d="m 23.496,34.005 c -0.553,0 -1,-0.447 -1,-1 0,-0.553 0.447,-1 1,-1 0.275,0 0.5,-0.225 0.5,-0.5 0,-0.275 -0.225,-0.5 -0.5,-0.5 -0.553,0 -1,-0.447 -1,-1 0,-0.553 0.447,-1 1,-1 1.379,0 2.5,1.121 2.5,2.5 0,1.379 -1.121,2.5 -2.5,2.5 z"
     id="path1035"
     inkscape:connector-curvature="0"
     style="fill:#e6e9ed" />
  <path
     d="M 23.496,31.005 H 2.5 c -0.553,0 -1,-0.447 -1,-1 0,-0.553 0.447,-1 1,-1 h 20.996 c 0.553,0 1,0.447 1,1 0,0.553 -0.447,1 -1,1 z"
     id="path1037"
     inkscape:connector-curvature="0"
     style="fill:#e6e9ed" />
  <path
     d="M 23.496,34.004 H 2.5 c -0.553,0 -1,-0.447 -1,-1 0,-0.553 0.447,-1 1,-1 h 20.996 c 0.553,0 1,0.447 1,1 0,0.553 -0.447,1 -1,1 z"
     id="path1039"
     inkscape:connector-curvature="0"
     style="fill:#e6e9ed" />
  <path
     d="M 52.496,31.005 H 31.5 c -0.553,0 -1,-0.447 -1,-1 0,-0.553 0.447,-1 1,-1 h 20.996 c 0.553,0 1,0.447 1,1 0,0.553 -0.447,1 -1,1 z"
     id="path1041"
     inkscape:connector-curvature="0"
     style="fill:#ed5565" />
</svg>
