<?xml version="1.0" encoding="UTF-8" standalone="no"?>
<!-- Created with Inkscape (http://www.inkscape.org/) -->

<svg
   xmlns:dc="http://purl.org/dc/elements/1.1/"
   xmlns:cc="http://creativecommons.org/ns#"
   xmlns:rdf="http://www.w3.org/1999/02/22-rdf-syntax-ns#"
   xmlns:svg="http://www.w3.org/2000/svg"
   xmlns="http://www.w3.org/2000/svg"
   xmlns:sodipodi="http://sodipodi.sourceforge.net/DTD/sodipodi-0.dtd"
   xmlns:inkscape="http://www.inkscape.org/namespaces/inkscape"
   version="1.1"
   id="svg3938"
   width="1000"
   height="1000"
   viewBox="0 0 1000 1000"
   sodipodi:docname="logo.svg"
   inkscape:version="0.92.3 (2405546, 2018-03-11)">
  <metadata
     id="metadata3944">
    <rdf:RDF>
      <cc:Work
         rdf:about="">
        <dc:format>image/svg+xml</dc:format>
        <dc:type
           rdf:resource="http://purl.org/dc/dcmitype/StillImage" />
        <dc:title></dc:title>
      </cc:Work>
    </rdf:RDF>
  </metadata>
  <defs
     id="defs3942" />
  <sodipodi:namedview
     pagecolor="#ffffff"
     bordercolor="#666666"
     borderopacity="1"
     objecttolerance="10"
     gridtolerance="10"
     guidetolerance="10"
     inkscape:pageopacity="0"
     inkscape:pageshadow="2"
     inkscape:window-width="1853"
     inkscape:window-height="1025"
     id="namedview3940"
     showgrid="false"
     inkscape:zoom="0.61589001"
     inkscape:cx="198.67072"
     inkscape:cy="332.26098"
     inkscape:window-x="67"
     inkscape:window-y="27"
     inkscape:window-maximized="1"
     inkscape:current-layer="g4014"
     inkscape:pagecheckerboard="true" />
  <g
     id="g4014"
     transform="translate(1.6236671,1.2473331)">
    <path
       style="fill:#f8fef9"
       d="M 77.462845,924.75 C 77.201933,924.0625 77.103557,731.35 77.24423,496.5 L 77.5,69.5 301.34324,69.2478 525.18647,68.995599 558.41246,101.7478 C 576.68675,119.76151 674.51979,215.93177 775.81922,315.4595 877.11865,414.98722 960,496.91786 960,497.52757 c 0,0.60972 -84.24014,83.87794 -187.20032,185.0405 C 669.83951,783.73063 572.00997,879.8875 555.4007,896.25 L 525.20204,926 H 301.56964 C 123.58338,926 77.840402,925.74486 77.462845,924.75 Z M 569,619 V 492 H 403.5 238 V 619 746 H 403.5 569 Z M 287.46228,714.75375 C 287.19947,714.06419 287.10045,668.95 287.24223,614.5 l 0.25777,-99 h 130 130 v 100 100 l -129.77995,0.25375 c -103.29698,0.20196 -129.87745,-0.002 -130.25777,-1 z"
       id="path4028"
       inkscape:connector-curvature="0" />
    <path
       style="fill:#b4c2d0"
       d="M 78.2,924.8 C 76.450761,923.05076 76.450761,71.949239 78.2,70.2 79.126143,69.273857 130.17958,69 301.90811,69 h 222.5081 l 27.0419,26.851827 C 566.33115,110.62033 657.475,200.2301 754,294.98465 850.525,389.73919 936.37884,474.0865 944.78631,482.4231 L 960.07263,497.58057 772.3362,682.04028 C 669.08116,783.49313 571.01027,879.8875 554.4009,896.25 L 524.20204,926 H 301.80102 C 130.15578,926 79.126139,925.72614 78.2,924.8 Z M 687.14072,681.86708 C 789.63832,581.14398 873.5,498.19921 873.5,497.54537 873.5,496.60928 533.25916,161.42584 506.75048,136.24729 l -6.58302,-6.25272 -180.83373,0.25272 L 138.5,130.5 l -0.25587,366 c -0.14073,201.3 -0.0424,366.5625 0.21861,367.25 0.37718,0.99365 37.57864,1.25 181.39659,1.25 h 180.9221 z m -226.4819,20.3899 C 460.03094,701.24104 458,682.38387 458,677.56992 c 0,-3.19064 0.0635,-3.23196 7.42574,-4.82962 16.08795,-3.49122 26.86792,-11.714 33.81797,-25.79579 12.6248,-25.57965 9.62879,-64.12178 -6.2166,-79.97341 -5.17087,-5.17291 -9.77021,-7.6033 -17.42857,-9.20966 -7.61857,-1.59802 -16.87378,0.96822 -23.02751,6.38496 -9.24138,8.13458 -13.09334,18.28944 -23.57561,62.15189 -1.6822,7.03906 -4.21223,16.48906 -5.62228,21 -6.3611,20.34997 -18.89403,37.2737 -32.59994,44.02104 -9.43518,4.64488 -14.05107,5.62652 -26.59688,5.65622 -8.42427,0.0199 -11.70435,-0.43902 -17.82783,-2.49461 C 323.204,686.71159 307.6078,667.11979 301.3864,638 c -2.38898,-11.18184 -2.37834,-34.62441 0.0218,-48 2.1192,-11.81001 6.31856,-24.24428 10.72655,-31.76121 5.3491,-9.12184 17.95709,-21.05896 27.36526,-25.90918 11.00933,-5.67567 30.07664,-10.51748 33.26178,-8.44626 0.98082,0.6378 3.49771,25.88777 2.70786,27.16577 -0.24478,0.39606 -2.5704,1.03882 -5.16805,1.42836 -15.98631,2.3973 -28.9694,11.85213 -36.28779,26.42629 -10.79175,21.49118 -10.13274,55.73307 1.4243,74.00642 12.73672,20.1386 38.54452,21.29658 51.27745,2.30079 5.08596,-7.58757 8.22514,-17.06698 15.63586,-47.21585 9.24576,-37.61431 14.98842,-51.04627 27.14859,-63.50005 8.10473,-8.30042 15.70972,-12.5154 27.18931,-15.06937 21.12714,-4.70034 44.94246,4.22515 59.15955,22.17178 14.74259,18.60998 20.48241,44.21693 17.12571,76.40251 -3.50104,33.56947 -18.64323,57.04035 -44.04018,68.26368 -8.55057,3.77863 -27.20111,7.73181 -28.27557,5.9933 z M 182,393.5 V 319 l 54.75,8.4e-4 c 57.0497,8.7e-4 70.75788,0.6593 83.56497,4.01379 14.57005,3.81626 24.81101,11.53929 30.9782,23.36164 2.93664,5.62947 3.19497,6.89049 3.20065,15.62373 0.006,8.64951 -0.25715,9.97535 -2.93522,14.80965 -5.38843,9.72692 -15.96769,17.69533 -28.90934,21.77482 l -5.41651,1.70741 5.13362,3.38143 c 10.75345,7.08312 15.33816,13.42526 28.11052,38.88602 7.62995,15.20974 11.47039,23.89339 10.84409,24.51969 -0.57351,0.57351 -8.03463,0.85761 -18.26114,0.69535 L 325.76841,467.5 314.84449,446 C 302.74599,422.18824 298.54345,416.85615 287.91109,411.82744 278.92278,407.5763 273.73445,407 244.45078,407 H 217 V 437.5 468 H 199.5 182 Z m 106.99602,-10.53462 c 13.55298,-1.42717 20.56249,-3.60992 24.45129,-7.61409 5.91982,-6.09545 7.21976,-15.61562 2.98445,-21.85671 -3.40581,-5.01874 -5.84721,-6.91792 -12.43176,-9.67072 -5.38531,-2.25144 -6.34978,-2.30594 -46.25,-2.6134 L 217,340.89644 V 362.44822 384 l 31.25,-0.0173 c 17.1875,-0.01 35.52321,-0.46731 40.74602,-1.01729 z M 559.3898,467.23469 C 558.39939,466.57926 550.30803,452.44415 539.50664,432.5 537.42155,428.65 529.32282,414.025 521.50947,400 513.69611,385.975 505.58601,371.35 503.48703,367.5 495.1802,352.26347 485.8889,335.42228 485.00505,334 481.73984,328.74568 478,321.44352 478,320.32242 478,319.27629 481.65277,319 495.48369,319 h 17.48369 l 4.36108,8.75 c 2.3986,4.8125 6.39836,12.575 8.88837,17.25 2.49001,4.675 8.69447,16.6 13.78769,26.5 23.31102,45.311 26.51767,51.5147 30.75513,59.5 2.48082,4.675 4.6376,8.65032 4.79284,8.83404 0.15524,0.18373 3.0731,-5.21627 6.48414,-12 3.41103,-6.78372 7.8862,-15.48404 9.94483,-19.33404 2.05862,-3.85 8.81412,-16.9 15.0122,-29 6.19809,-12.1 14.20145,-27.625 17.78524,-34.5 3.5838,-6.875 8.04294,-15.5375 9.90921,-19.25 l 3.39321,-6.75 h 17.29267 c 9.51097,0 17.58671,0.29404 17.94609,0.65341 0.35938,0.35938 -0.18882,2.04688 -1.21822,3.75 -1.0294,1.70313 -3.56765,6.24659 -5.64056,10.09659 -2.07291,3.85 -4.59971,8.19447 -5.61511,9.65437 -1.0154,1.4599 -1.84619,2.96137 -1.84619,3.3366 0,0.37522 -5.56149,10.65576 -12.35886,22.84563 -17.11496,30.69259 -37.81794,68.0468 -41.46061,74.80698 -1.67255,3.10397 -5.35105,9.74147 -8.17446,14.75 L 591.8726,468 576.1863,467.9847 c -8.62747,-0.008 -16.18589,-0.34592 -16.7965,-0.75 z M 383,413 v -11 h 42.5 42.5 v 11 11 H 425.5 383 Z"
       id="path4026"
       inkscape:connector-curvature="0" />
    <path
       style="fill:#fbb416"
       d="M 78,497.5 V 70 h 223.60007 223.60006 l 56.14994,55.36317 C 612.23253,155.81291 709.725,251.67929 798,338.39956 c 88.275,86.72027 160.5,158.32574 160.5,159.12325 0,0.79752 -97.53399,97.30614 -216.7422,214.46361 L 525.01559,925 H 301.5078 78 Z m 609.87246,184.05168 c 102.50485,-100.81636 186.42985,-183.57009 186.5,-183.89718 0.0701,-0.3271 -83.9126,-83.18439 -186.62834,-184.12731 L 500.98825,129.9946 319.74412,130.2473 138.5,130.5 l -0.25587,366 c -0.14073,201.3 -0.0424,366.5625 0.21861,367.25 0.37733,0.99403 37.5967,1.23507 181.75588,1.17707 L 501.5,864.85414 Z M 460.53157,700.75 c -0.96403,-2.97058 -2.52936,-25.13991 -1.81689,-25.73209 0.43193,-0.359 3.71032,-1.2211 7.28532,-1.91578 19.91127,-3.86906 32.8382,-17.30504 39.11965,-40.66015 2.91609,-10.84235 3.13513,-30.69491 0.45724,-41.44198 -5.27642,-21.17568 -16.4041,-32.80797 -32.36607,-33.83379 -17.16227,-1.10297 -27.25243,7.96982 -34.55903,31.0745 -1.95834,6.19261 -5.80009,20.48429 -8.53722,31.75929 -5.83986,24.05602 -9.60528,35.57361 -14.64469,44.79479 -12.02001,21.99441 -27.99004,32.17565 -50.46988,32.17565 -16.5742,0 -29.8035,-5.71941 -42.61468,-18.42356 -6.75538,-6.69894 -8.88153,-9.63823 -12.69261,-17.54688 -6.87523,-14.26731 -8.74674,-22.56238 -9.39688,-41.64982 -1.23242,-36.18239 8.10426,-62.53199 28.04551,-79.14884 C 338.45784,531.77135 358.35838,524 369.82901,524 c 3.27967,0 3.40561,0.4806 4.76846,18.1975 l 0.66905,8.6975 -2.88326,0.58262 c -6.58006,1.32964 -17.14647,4.92161 -20.88326,7.09912 -10.82188,6.30615 -19.68055,20.17253 -23.53005,36.83131 -1.94912,8.43489 -2.17396,11.52133 -1.70487,23.40409 0.54994,13.93119 2.46812,22.80058 6.74497,31.18786 2.9337,5.75324 9.90712,12.91796 15.3666,15.78813 4.46034,2.3449 6.28803,2.69372 14.12335,2.69549 10.3361,0.002 14.49706,-1.64407 20.59468,-8.14889 7.65029,-8.16116 10.45625,-15.58014 19.38094,-51.24321 9.96608,-39.82451 14.97646,-51.51217 27.51371,-64.18102 C 441.09907,533.68416 452.43687,529 468.5,529 c 41.84014,0 69.20648,39.57207 64.57205,93.37199 -1.49678,17.3757 -4.16373,27.93931 -10.22672,40.50729 -4.10551,8.51032 -6.29804,11.66778 -12.17623,17.53494 -11.07512,11.05434 -21.8636,16.89259 -36.98906,20.01684 -9.17451,1.89505 -12.60994,1.97838 -13.14847,0.31894 z M 182.46926,466.77428 C 182.20162,466.07343 182.09905,432.65 182.24133,392.5 l 0.25867,-73 47.5,-0.27657 c 84.75793,-0.49352 97.79289,1.48044 113.37589,17.1691 13.97594,14.07072 15.39229,32.55167 3.5763,46.66457 -4.80987,5.74486 -15.24247,12.30838 -24.53423,15.43534 l -6.39005,2.15044 3.23604,1.54551 c 4.42312,2.11243 11.1031,7.82789 15.81931,13.53515 4.46395,5.402 27.3196,49.81561 26.40069,51.30243 C 361.13162,467.59605 353.85006,468 343.92628,468 H 326.9706 l -1.99756,-3.25 C 323.87438,462.9625 319.33082,454.3 314.87623,445.5 304.35289,424.71124 301.77051,420.73035 296.15624,416.64191 283.67087,407.5498 275.77001,406 241.90398,406 H 217.0289 l -0.26445,30.75 -0.26445,30.75 -16.77207,0.27428 c -12.86962,0.21046 -16.88529,-0.0222 -17.25867,-1 z m 113.3229,-84.31464 c 9.48152,-1.89483 12.77824,-3.09528 16.96935,-6.17914 4.09646,-3.01421 6.23956,-8.05083 6.23475,-14.65262 -0.007,-8.91912 -5.26426,-14.68282 -16.99626,-18.6318 -6.11528,-2.05839 -8.82313,-2.22006 -45.75,-2.7314 L 217,339.72117 V 361.86059 384 h 35.54216 c 28.00435,0 37.17684,-0.32668 43.25,-1.54036 z M 558.27466,465.75 c -1.18165,-1.52238 -9.60509,-16.51307 -17.27878,-30.75 -3.11272,-5.775 -9.71464,-17.7 -14.67093,-26.5 -4.9563,-8.8 -10.6,-18.925 -12.54158,-22.5 -3.43543,-6.32564 -7.52118,-13.76607 -21.14139,-38.5 -3.63441,-6.6 -7.06216,-12.675 -7.61722,-13.5 C 483.02369,331.02573 478,321.03415 478,320.02852 c 0,-1.19149 32.83955,-1.44135 34.5942,-0.26321 0.60181,0.40408 3.4502,5.45969 6.32975,11.23469 2.87956,5.775 7.62339,15 10.54186,20.5 6.30899,11.88962 15.62311,29.87385 31.33325,60.5 6.34794,12.375 12.31123,23.76808 13.25176,25.31795 l 1.71004,2.81795 10.77367,-20.81795 C 608.40837,377.05112 630.86045,333.5107 634.78382,325.75 l 3.41242,-6.75 h 17.34286 c 9.53858,0 17.54362,0.3375 17.789,0.75 0.24537,0.4125 -1.60012,4.35 -4.1011,8.75 -10.41735,18.32743 -12.33303,21.75645 -21.2293,38 -5.1208,9.35 -10.97326,19.925 -13.00546,23.5 -2.03219,3.575 -10.347,18.65 -18.47733,33.5 -8.13034,14.85 -15.50974,28.125 -16.39867,29.5 -0.88893,1.375 -2.96624,5.08593 -4.61624,8.2465 l -3,5.74651 -16.62756,0.003 c -12.12142,0.003 -16.89049,-0.33525 -17.59778,-1.2465 z M 383,413 v -11 h 42.5 42.5 v 11 11 H 425.5 383 Z"
       id="path4024"
       inkscape:connector-curvature="0" />
    <path
       style="fill:#6f8da5"
       d="M 78,497.5 V 70 h 223.60007 223.60006 l 56.14994,55.36317 C 612.23253,155.81291 709.725,251.67929 798,338.39956 c 88.275,86.72027 160.5,158.32574 160.5,159.12325 0,0.79752 -97.53399,97.30614 -216.7422,214.46361 L 525.01559,925 H 301.5078 78 Z m 609.87246,184.05168 c 102.50485,-100.81636 186.42985,-183.57009 186.5,-183.89718 0.0701,-0.3271 -83.9126,-83.18439 -186.62834,-184.12731 L 500.98825,129.9946 319.74412,130.2473 138.5,130.5 l -0.25587,366 c -0.14073,201.3 -0.0424,366.5625 0.21861,367.25 0.37733,0.99403 37.5967,1.23507 181.75588,1.17707 L 501.5,864.85414 Z M 460.53157,700.75 c -0.96403,-2.97058 -2.52936,-25.13991 -1.81689,-25.73209 0.43193,-0.359 3.71032,-1.2211 7.28532,-1.91578 19.91127,-3.86906 32.8382,-17.30504 39.11965,-40.66015 2.91609,-10.84235 3.13513,-30.69491 0.45724,-41.44198 -5.27642,-21.17568 -16.4041,-32.80797 -32.36607,-33.83379 -17.16227,-1.10297 -27.25243,7.96982 -34.55903,31.0745 -1.95834,6.19261 -5.80009,20.48429 -8.53722,31.75929 -5.83986,24.05602 -9.60528,35.57361 -14.64469,44.79479 -12.02001,21.99441 -27.99004,32.17565 -50.46988,32.17565 -16.5742,0 -29.8035,-5.71941 -42.61468,-18.42356 -6.75538,-6.69894 -8.88153,-9.63823 -12.69261,-17.54688 -6.87523,-14.26731 -8.74674,-22.56238 -9.39688,-41.64982 -1.23242,-36.18239 8.10426,-62.53199 28.04551,-79.14884 C 338.45784,531.77135 358.35838,524 369.82901,524 c 3.27967,0 3.40561,0.4806 4.76846,18.1975 l 0.66905,8.6975 -2.88326,0.58262 c -6.58006,1.32964 -17.14647,4.92161 -20.88326,7.09912 -10.82188,6.30615 -19.68055,20.17253 -23.53005,36.83131 -1.94912,8.43489 -2.17396,11.52133 -1.70487,23.40409 0.54994,13.93119 2.46812,22.80058 6.74497,31.18786 2.9337,5.75324 9.90712,12.91796 15.3666,15.78813 4.46034,2.3449 6.28803,2.69372 14.12335,2.69549 10.3361,0.002 14.49706,-1.64407 20.59468,-8.14889 7.65029,-8.16116 10.45625,-15.58014 19.38094,-51.24321 9.96608,-39.82451 14.97646,-51.51217 27.51371,-64.18102 C 441.09907,533.68416 452.43687,529 468.5,529 c 41.84014,0 69.20648,39.57207 64.57205,93.37199 -1.49678,17.3757 -4.16373,27.93931 -10.22672,40.50729 -4.10551,8.51032 -6.29804,11.66778 -12.17623,17.53494 -11.07512,11.05434 -21.8636,16.89259 -36.98906,20.01684 -9.17451,1.89505 -12.60994,1.97838 -13.14847,0.31894 z M 182.46926,466.77428 C 182.20162,466.07343 182.09905,432.65 182.24133,392.5 l 0.25867,-73 47.5,-0.27657 c 84.75793,-0.49352 97.79289,1.48044 113.37589,17.1691 13.97594,14.07072 15.39229,32.55167 3.5763,46.66457 -4.80987,5.74486 -15.24247,12.30838 -24.53423,15.43534 l -6.39005,2.15044 3.23604,1.54551 c 4.42312,2.11243 11.1031,7.82789 15.81931,13.53515 4.46395,5.402 27.3196,49.81561 26.40069,51.30243 C 361.13162,467.59605 353.85006,468 343.92628,468 H 326.9706 l -1.99756,-3.25 C 323.87438,462.9625 319.33082,454.3 314.87623,445.5 304.35289,424.71124 301.77051,420.73035 296.15624,416.64191 283.67087,407.5498 275.77001,406 241.90398,406 H 217.0289 l -0.26445,30.75 -0.26445,30.75 -16.77207,0.27428 c -12.86962,0.21046 -16.88529,-0.0222 -17.25867,-1 z m 113.3229,-84.31464 c 9.48152,-1.89483 12.77824,-3.09528 16.96935,-6.17914 4.09646,-3.01421 6.23956,-8.05083 6.23475,-14.65262 -0.007,-8.91912 -5.26426,-14.68282 -16.99626,-18.6318 -6.11528,-2.05839 -8.82313,-2.22006 -45.75,-2.7314 L 217,339.72117 V 361.86059 384 h 35.54216 c 28.00435,0 37.17684,-0.32668 43.25,-1.54036 z"
       id="path4022"
       inkscape:connector-curvature="0" />
    <path
       style="fill:#4e7292"
       d="M 78,497.5 V 70 h 223.58243 223.58242 l 56.16758,55.35893 C 612.22459,155.80634 709.725,251.67272 798,338.39532 c 88.275,86.72261 160.5,158.33101 160.5,159.12978 0,0.79878 -97.5361,97.3074 -216.74688,214.46361 L 525.00624,925 H 301.50312 78 Z M 687.87246,681.55168 C 790.37731,580.73532 874.17415,497.85564 874.08765,497.37461 874.00116,496.89357 790.01965,414.0375 687.46207,313.25 L 500.99375,130 H 319.49687 138 V 497.5 865 l 181.75,-0.0729 181.75,-0.0729 186.37246,-183.30246 z m -227.21447,17.7788 c -0.29495,-1.55676 -0.8026,-5.98048 -1.12812,-9.83048 -0.32552,-3.85 -0.8379,-8.66054 -1.13864,-10.6901 -0.53705,-3.62437 -0.47861,-3.70182 3.28099,-4.34837 23.16998,-3.98466 36.92193,-17.03365 43.55213,-41.32588 3.13049,-11.46973 3.10681,-33.62144 -0.0477,-44.60054 -5.41168,-18.83516 -14.58179,-28.76725 -29.10284,-31.52111 -13.45503,-2.55169 -25.90717,4.45926 -32.83294,18.486 -4.00727,8.11592 -5.30537,12.3565 -11.78533,38.5 -8.96431,36.16668 -12.14291,45.24809 -19.94514,56.98432 -12.06985,18.15566 -29.46771,27.04932 -50.20952,25.66674 -27.7959,-1.85277 -49.52371,-21.85188 -58.06046,-53.44109 -2.40117,-8.88523 -2.6234,-11.32377 -2.6165,-28.70997 0.008,-20.67739 1.54602,-30.54247 6.97787,-44.76354 9.59577,-25.12256 31.71682,-41.94985 59.50148,-45.26224 l 5.60329,-0.66801 0.6683,7.8469 c 0.36756,4.31579 0.9353,10.37771 1.26163,13.47094 l 0.59332,5.62405 -7.40818,1.64817 c -16.58308,3.68938 -27.23418,11.76791 -34.1121,25.87295 -5.57207,11.42706 -7.69419,21.70925 -7.70254,37.32082 -0.0138,25.73155 7.91609,43.20953 23.01908,50.73567 11.36473,5.66328 28.32611,2.35984 35.65513,-6.94428 6.90584,-8.76689 9.67194,-16.50189 18.22871,-50.97408 3.28919,-13.25096 6.72377,-26.07596 7.6324,-28.5 0.90863,-2.42404 2.58204,-6.88235 3.71869,-9.90735 7.19997,-19.16151 19.93272,-32.46202 36.54854,-38.17825 9.51055,-3.27185 25.84211,-3.28187 35.31576,-0.0217 17.05614,5.8696 28.96248,16.58732 37.43732,33.69992 6.62934,13.38612 8.59282,22.07067 9.17663,40.58864 0.76893,24.3893 -2.04554,40.34162 -10.04088,56.91136 -3.35994,6.96324 -5.73739,10.1357 -13.14993,17.54726 -7.35811,7.35714 -10.63635,9.82151 -17.54846,13.19183 -8.65431,4.21982 -16.41409,6.5664 -25.65287,7.75753 -5.06444,0.65294 -5.16207,0.61577 -5.68914,-2.16614 z M 182.24355,393.25 182.5,319.5 225,319.19884 c 78.40275,-0.55556 98.81883,1.79674 114.30407,13.16993 12.47761,9.16422 18.0715,27.53418 12.73104,41.80783 -3.75663,10.04052 -15.53946,19.3338 -30.78511,24.28064 -2.8875,0.93692 -5.25,1.87122 -5.25,2.07621 0,0.20499 1.6875,1.15717 3.75,2.11594 2.0625,0.95877 6.95655,4.92312 10.87566,8.80967 6.38855,6.33546 8.04368,8.87544 16,24.5537 4.88089,9.61798 10.31479,20.53481 12.07535,24.25961 l 3.201,6.77237 -18.04963,-0.27237 -18.04964,-0.27237 -10.64945,-21 C 303.08089,421.69404 298.89198,416.44505 287.80697,411.23321 278.46269,406.83982 271.2189,406 242.66809,406 H 217 V 436.5 467 H 199.49355 181.9871 Z m 119.89088,-11.60688 c 10.32513,-2.84522 16.42689,-8.86956 16.86982,-16.65575 0.48116,-8.45827 0.0606,-9.9617 -4.0272,-14.39644 -4.78241,-5.1883 -11.31567,-8.21478 -20.64482,-9.56354 -3.75772,-0.54328 -22.69473,-0.99669 -42.08223,-1.00758 L 217,340 v 22.05343 22.05342 l 39.25,-0.31777 c 34.28854,-0.2776 40.08864,-0.54886 45.88443,-2.14596 z"
       id="path4020"
       inkscape:connector-curvature="0" />
    <path
       style="fill:#335c81"
       d="M 78,497.5 V 70 H 301.25311 524.50623 L 687.00311,229.65302 C 947.118,485.21563 958.5,496.44664 958.5,497.54826 c 0,0.57654 -97.63152,96.98904 -216.95893,214.25 L 524.58215,925 H 301.29107 78 Z M 687.87246,681.55168 C 790.37731,580.73532 874.17415,497.85564 874.08765,497.37461 874.00116,496.89357 790.01965,414.0375 687.46207,313.25 L 500.99375,130 H 319.49687 138 V 497.5 865 l 181.75,-0.0729 181.75,-0.0729 186.37246,-183.30246 z m -227.21702,17.1648 c -0.30501,-1.76907 -0.85354,-7.73461 -1.21895,-13.25677 l -0.6644,-10.04029 7.36396,-1.73707 c 13.8693,-3.2716 24.08056,-10.14001 30.94191,-20.81251 16.10076,-25.04396 13.89804,-70.45863 -4.24031,-87.42493 -11.26263,-10.53488 -25.55617,-12.20915 -38.00584,-4.45181 -9.96523,6.2093 -14.00665,15.36701 -23.66403,53.62181 -9.47645,37.53807 -12.6717,46.2055 -21.76006,59.02615 -8.37844,11.8192 -19.14246,19.00544 -32.61556,21.77468 -9.49869,1.95235 -14.29522,1.9688 -23.29216,0.0799 -24.83508,-5.21419 -42.96998,-24.57624 -50.57343,-53.9956 -2.00924,-7.77418 -2.32314,-11.38353 -2.30469,-26.5 0.0215,-17.65119 1.26537,-27.35118 5.0651,-39.5 2.51993,-8.05696 9.90111,-21.58127 14.87926,-27.2628 11.18163,-12.76154 30.52502,-22.41763 46.93376,-23.42901 l 5,-0.30819 0.66456,7 c 0.3655,3.85 0.93108,9.72019 1.25683,13.04488 l 0.59228,6.04487 -7.75684,1.79438 c -16.68085,3.85876 -26.94087,11.9854 -34.23424,27.11587 -5.56535,11.54561 -7.48633,21.25165 -7.32291,37 0.26476,25.5141 8.06319,42.31955 23.06521,49.70502 5.66204,2.78741 7.61533,3.23713 13.82305,3.18261 12.58692,-0.11056 22.02637,-6.53788 27.93028,-19.01772 3.47354,-7.34247 6.48295,-17.46358 13.04427,-43.86991 7.85242,-31.60246 12.67464,-43.96581 21.97321,-56.33565 6.04602,-8.04298 16.50413,-15.48607 25.91843,-18.44627 9.75513,-3.06738 25.23817,-2.97838 34.54587,0.19857 29.85749,10.19109 47,38.86847 47,78.62539 0,30.14903 -7.14438,52.72969 -21.63542,68.38136 -11.64918,12.58219 -27.02298,20.16198 -45.50958,22.43774 -4.60128,0.56643 -4.65022,0.54154 -5.19956,-2.64466 z M 183,393.52418 V 320 l 56.25,0.008 c 55.98617,0.008 68.13109,0.55464 80.75,3.63343 13.83855,3.37636 25.73863,12.37962 30.80167,23.30367 3.3511,7.23036 4.06187,17.5724 1.75343,25.51316 -3.01552,10.37301 -14.95005,20.42901 -30.46259,25.66768 -3.35088,1.13161 -6.09251,2.1982 -6.09251,2.37021 0,0.172 2.40495,1.67 5.34433,3.32889 9.91728,5.59696 15.45662,13.12539 28.16538,38.27911 C 355.82937,454.61247 361,465.33096 361,465.9232 361,466.6509 355.37402,467 343.64669,467 H 326.29338 L 315.44219,445.75 C 303.15255,421.68306 298.97579,416.47689 287.60248,411.04891 278.15926,406.54207 273.46481,406 243.87817,406 h -26.84884 l -0.26467,30.25 -0.26466,30.25 -16.75,0.27418 -16.75,0.27418 z m 115,-10.8496 c 8.81949,-1.89129 11.22671,-2.98117 15.89019,-7.19434 4.8237,-4.35792 6.92637,-11.73406 5.18667,-18.1948 -1.51351,-5.62074 -8.01916,-11.70704 -15.42437,-14.4301 -5.94045,-2.18444 -7.53964,-2.27475 -46.40249,-2.62051 L 217,339.87673 v 21.89497 c 0,12.04223 0.3375,22.24962 0.75,22.68309 1.30798,1.37447 72.95012,-0.21479 80.25,-1.78021 z"
       id="path4018"
       inkscape:connector-curvature="0" />
    <path
       style="fill:#003161"
       d="M 78.462844,923.75 C 78.201931,923.0625 78.103554,730.8 78.244229,496.5 L 78.5,70.5 l 223,-0.195589 223,-0.195589 216.91708,213.275568 c 119.3044,117.30156 216.9544,213.63135 217,214.0662 0.0456,0.43485 -97.56708,96.79044 -216.91708,214.12353 l -217,213.33289 -222.78138,0.0465 C 124.3789,924.99052 78.840468,924.74503 78.462844,923.75 Z M 688.5,681.91767 c 102.3,-100.61507 186,-183.58975 186,-184.38819 0,-0.79844 -83.81382,-83.81921 -186.25294,-184.49059 L 501.99412,130 H 319.99706 138 V 497.5 865 l 182.25,-0.0729 182.25,-0.0729 186,-182.93649 z M 460.59537,693.25 c -0.37427,-4.2625 -0.93804,-10.02519 -1.25281,-12.80598 l -0.57232,-5.05598 6.69662,-1.2339 c 19.74427,-3.63803 32.35742,-15.97791 39.51014,-38.65414 3.01933,-9.57217 3.85073,-29.57287 1.73323,-41.69617 -3.84567,-22.01765 -16.34928,-36.20246 -33.0967,-37.54678 -12.20501,-0.9797 -21.95515,4.07613 -28.55919,14.80906 -5.32255,8.65024 -6.37427,11.98977 -16.04076,50.93389 -7.27999,29.32945 -11.32965,39.68208 -20.60963,52.6868 -11.80534,16.54371 -32.48673,24.66732 -53.00894,20.8218 -13.24877,-2.4826 -22.16675,-7.22557 -31.92796,-16.98067 -9.21647,-9.21071 -14.65322,-18.61184 -19.12887,-33.07727 -2.67249,-8.63758 -2.77057,-9.73767 -2.80377,-31.45066 -0.0328,-21.46337 0.0903,-22.94582 2.6723,-32.17649 7.96784,-28.485 22.92181,-45.09444 48.5332,-53.90605 7.94996,-2.73519 18.7605,-3.66175 19.52353,-1.67333 0.31705,0.82622 0.88627,6.6218 1.26492,12.87905 l 0.68847,11.37682 -7.85842,1.84294 c -20.53318,4.81539 -33.1391,18.28601 -38.98303,41.65706 -2.60609,10.42224 -2.60451,31.57406 0.003,42 5.51369,22.04498 19.5022,34.93552 36.62148,33.74706 11.78617,-0.81822 20.74269,-7.3141 26.84179,-19.46748 3.45739,-6.88935 4.57866,-10.66171 12.26971,-41.27958 6.22445,-24.77937 10.06175,-36.62626 15.06171,-46.5 10.92857,-21.58135 27.80434,-32.67517 49.82679,-32.75522 37.84838,-0.13756 65,33.48339 65,80.48735 0,42.10348 -14.68973,70.61582 -43.35436,84.14955 C 482.17481,697.90896 470.51969,701 464.69053,701 h -3.41467 z M 183,393.5 V 320 h 54.89405 c 67.27218,0 78.43941,0.92247 92.65643,7.65392 10.21309,4.83567 19.43882,15.18051 22.26168,24.9621 1.45516,5.0423 1.52696,13.62284 0.15533,18.56129 -3.15995,11.37715 -15.6707,21.80683 -32.75468,27.30618 l -5.2872,1.70195 5.7872,3.47442 c 7.29856,4.38178 10.538,7.43017 15.23883,14.34014 3.71302,5.45793 25.04836,46.44997 25.04836,48.12594 0,0.48073 -7.7625,0.87308 -17.25,0.87189 l -17.25,-0.002 -9.8436,-19.45345 C 311.24243,436.84281 305.32477,425.9958 303.50606,423.43774 299.34566,417.58606 291.40184,411.94455 283,408.87485 276.6978,406.57227 275.58706,406.5 246.5,406.5 h -30 l -0.26466,30.25 -0.26467,30.25 H 199.48534 183 Z m 115.96951,-10.8957 c 14.17255,-3.01283 20.41242,-9.28694 20.49188,-20.6043 0.0481,-6.85116 -1.75332,-10.48866 -7.27783,-14.69569 C 303.65725,340.81132 301.10951,340.5 256.5,340.5 h -40 l -0.28346,20 c -0.1559,11 -0.0227,21.06087 0.29603,22.35749 l 0.57949,2.35749 37.20397,-0.5114 c 28.61039,-0.39327 38.92932,-0.87817 44.67348,-2.09928 z"
       id="path4016"
       inkscape:connector-curvature="0" />
    <path
       style="fill:#ffffff;stroke-width:1.14810562"
       d="m 148.39539,864.88372 -7.74971,-0.40164 V 498.28884 132.0956 h 181.03806 181.03807 l 27.63012,27.32448 c 15.19658,15.02846 72.82896,71.73053 128.07196,126.00459 105.81855,103.96255 199.47523,196.52063 209.71439,207.25445 l 6.09833,6.39291 -49.05724,48.75019 C 798.19789,574.63481 742.26726,629.88085 700.88909,670.59117 659.5109,711.3015 597.96603,771.86311 564.12272,805.17253 L 502.5894,865.7351 329.36725,865.51023 c -95.27218,-0.12367 -176.70952,-0.4056 -180.97186,-0.62651 z m 330.94576,-163.4061 c 36.6402,-10.15351 56.27491,-40.94012 56.24419,-88.18912 -0.005,-7.33693 -0.54909,-16.67066 -1.20959,-20.74163 -6.15107,-37.91166 -32.13101,-63.20672 -64.91809,-63.20672 -25.07213,0 -45.30709,16.219 -55.54926,44.52462 -1.95669,5.40758 -6.40116,20.72172 -9.87658,34.03141 -10.49186,40.18025 -13.14153,46.84218 -21.58762,54.27673 -14.76454,12.99626 -36.36431,7.93536 -46.3867,-10.86858 -5.08759,-9.54529 -7.24077,-20.00748 -7.23181,-35.13901 0.0202,-34.16678 15.10095,-56.47633 41.71624,-61.71258 l 6.94025,-1.3654 -0.73844,-11.58657 c -1.12471,-17.64733 -0.85953,-17.1808 -9.31681,-16.39104 -3.89735,0.36393 -11.25725,2.18398 -16.35532,4.04454 -23.50811,8.5794 -39.12281,26.2492 -46.3274,52.42469 -2.02556,7.35916 -2.63414,13.29263 -3.06174,29.85074 -0.47257,18.29988 -0.2525,21.84891 1.92222,30.99885 7.3963,31.11932 28.58618,52.69407 54.62172,55.61384 26.73868,2.99862 47.32803,-8.32147 60.02124,-32.99987 5.6172,-10.92107 7.74593,-17.52775 15.23993,-47.29824 10.08626,-40.06842 14.77943,-49.80066 26.86723,-55.71468 15.06318,-7.36973 32.81774,0.0952 41.26694,17.35069 8.98317,18.34601 8.55425,47.67516 -0.99265,67.87748 -6.59615,13.95818 -16.6844,22.00058 -32.85248,26.19015 -4.05784,1.0515 -7.6558,2.36147 -7.99547,2.91106 -0.67579,1.09345 0.69045,20.75588 1.73087,24.90999 0.84756,3.38408 6.14644,3.44609 17.82913,0.20865 z M 218.71686,439.11666 v -30.522 l 30.85618,0.38423 30.85619,0.38422 9.02661,4.59242 c 11.28942,5.74366 13.74754,8.90077 27.42405,35.2224 l 10.33295,19.88667 17.53312,0.31707 c 14.5563,0.26322 17.64285,0.0311 18.17947,-1.36731 0.69298,-1.80589 -12.27176,-28.92676 -20.66336,-43.22556 -4.66555,-7.94983 -17.53042,-21.74027 -20.28115,-21.74027 -0.59546,0 -1.08266,-0.51665 -1.08266,-1.1481 0,-0.63146 0.66039,-1.14811 1.46752,-1.14811 3.2918,0 18.29638,-8.2163 23.1137,-12.65675 7.79281,-7.18316 11.01006,-14.55583 11.01006,-25.23074 0,-7.13086 -0.55445,-9.84662 -3.02067,-14.79567 -3.96629,-7.95932 -12.14849,-15.9948 -20.37821,-20.01282 -13.60654,-6.64317 -16.1263,-6.85903 -85.95819,-7.36368 l -64.00688,-0.46254 v 74.70427 74.70427 h 17.79563 17.79564 z m 394.07052,-3.63414 c 54.51569,-98.36372 63.11368,-114.09402 62.62788,-114.57983 -0.29096,-0.29096 -8.48904,-0.65565 -18.21798,-0.81042 l -17.68894,-0.2814 -30.9326,60.00275 c -17.01293,33.00151 -31.32088,59.60886 -31.79544,59.12744 -0.47455,-0.48142 -14.50002,-27.22433 -31.16769,-59.42869 l -30.30487,-58.55339 -6.79142,-0.81698 c -8.72163,-1.04916 -29.17948,0.18389 -29.17948,1.75875 0,0.65315 7.02205,13.88297 15.60457,29.3996 52.82441,95.50301 63.24961,114.09769 65.09458,116.10437 1.84484,2.00656 3.67061,2.23394 17.93754,2.23394 h 15.88363 z M 470.15199,414.52959 v -11.48106 h -43.05396 -43.05396 v 11.48106 11.48105 h 43.05396 43.05396 z"
       id="path4159"
       inkscape:connector-curvature="0"
       transform="translate(-1.6236671,-1.2473331)" />
    <path
       style="fill:#ffffff;stroke-width:1.14810562"
       d="m 148.39539,864.88372 -7.74971,-0.40164 V 498.28884 132.0956 l 181.11366,0.0411 181.11366,0.0411 126.86567,124.78935 c 69.77612,68.63414 153.4026,151.17111 185.83662,183.41547 l 58.97094,58.62614 -83.08116,82.16787 C 745.77043,626.36901 662.14396,708.86023 605.62846,764.49048 L 502.873,865.63641 329.50905,865.46088 c -95.35017,-0.0965 -176.85132,-0.35625 -181.11366,-0.57716 z M 477.04063,702.06545 c 39.15525,-9.19664 60.49841,-44.31922 58.21675,-95.80222 -0.77395,-17.46321 -3.56199,-28.82197 -10.2258,-41.66099 -13.72579,-26.44516 -42.53355,-40.44548 -69.02471,-33.5454 -9.50639,2.4761 -15.28398,5.75528 -22.84198,12.96439 -12.50108,11.92401 -18.25508,23.59785 -26.15169,53.05715 -14.11433,52.65528 -15.8035,57.17517 -24.18311,64.70916 -14.92798,13.42154 -36.62039,8.56425 -46.76649,-10.47178 -5.12503,-9.61553 -7.09177,-19.2459 -7.11163,-34.82296 -0.0442,-34.64281 14.78629,-56.76675 41.58731,-62.03953 l 6.9376,-1.36489 -0.75031,-11.44909 c -1.06591,-16.26519 -1.29328,-16.89156 -6.13148,-16.89156 -6.44616,0 -17.3902,3.24296 -27.76706,8.22801 -18.15844,8.72332 -30.7281,24.66063 -37.46132,47.49785 -2.57047,8.71835 -3.13083,13.27446 -3.66844,29.82663 -0.91466,28.16085 2.5372,42.90017 14.14741,60.4089 12.2197,18.42786 28.69861,27.40256 50.3153,27.40256 21.66804,0 35.82997,-7.70929 47.77487,-26.00704 7.58135,-11.61347 10.58762,-19.88636 18.88714,-51.97509 11.36227,-43.93039 15.22312,-52.07786 27.53182,-58.09995 15.05769,-7.36704 32.64557,0.0924 41.35228,17.53862 8.8896,17.81263 8.35106,47.97916 -1.20834,67.68457 -6.89997,14.22341 -17.02513,22.23409 -33.2562,26.31121 l -7.75362,1.94764 0.7012,12.25544 c 0.38566,6.7405 1.03186,13.11712 1.436,14.17028 0.92672,2.41502 5.51545,2.45315 15.4145,0.12809 z M 218.71686,439.13054 v -30.50812 l 30.85704,0.37035 30.85704,0.37034 9.02576,4.59242 c 11.26372,5.73113 13.68907,8.84517 27.44641,35.23984 l 10.35616,19.86923 17.10914,0.31886 c 10.83197,0.20187 17.55093,-0.12294 18.31327,-0.88528 0.84012,-0.84012 -2.33536,-8.25306 -10.50395,-24.52082 -9.43113,-18.78212 -13.02396,-24.75272 -18.47427,-30.70077 -3.72139,-4.06124 -8.12495,-8.11127 -9.78568,-9.00008 -1.66074,-0.88879 -3.01952,-1.92406 -3.01952,-2.30061 0,-0.37654 2.55116,-1.59071 5.66924,-2.69815 13.38734,-4.75476 26.18243,-16.45585 28.85744,-26.3901 1.96441,-7.29528 0.8869,-18.83612 -2.36069,-25.28435 -5.86742,-11.65006 -21.03506,-22.12337 -36.18436,-24.98542 -4.34274,-0.82045 -30.33205,-1.51282 -70.32147,-1.87338 l -63.43283,-0.57194 v 74.73305 74.73305 h 17.79563 17.79564 z M 620.04539,422.2793 c 14.39514,-26.04765 32.84373,-59.41179 40.99687,-74.14255 8.15312,-14.73076 14.64897,-26.95177 14.43522,-27.15779 -0.21374,-0.20604 -8.39667,-0.55314 -18.18427,-0.77135 l -17.79564,-0.39674 -11.48105,22.38966 c -33.2684,64.878 -50.53883,97.44891 -51.27457,96.70049 -0.45161,-0.4594 -14.33405,-26.92597 -30.84984,-58.8146 -16.51581,-31.88864 -30.42409,-58.39675 -30.9073,-58.90691 -1.28159,-1.3531 -33.42461,-1.18098 -34.7919,0.18631 -1.43518,1.43518 77.34075,143.98215 80.97629,146.52859 1.92128,1.34571 5.94191,1.74425 17.59673,1.74425 h 15.10646 z m -149.8934,-7.74971 v -11.48106 h -43.05396 -43.05396 v 11.48106 11.48105 h 43.05396 43.05396 z"
       id="path4161"
       inkscape:connector-curvature="0"
       transform="translate(-1.6236671,-1.2473331)" />
    <path
       style="fill:#ffffff;stroke-width:1.14810562"
       d="m 148.39539,864.88372 -7.74971,-0.40164 V 498.28884 132.0956 l 181.11366,0.0263 181.11366,0.0264 93.57061,92.0041 c 124.3662,122.28413 262.99402,259.27629 271.23746,268.03714 l 6.635,7.05146 -86.98446,86.06179 C 739.49017,632.63676 655.91548,715.08537 601.61009,768.52192 L 502.873,865.67928 329.50905,865.48232 C 234.15888,865.374 152.65773,865.10463 148.39539,864.88372 Z M 477.71805,701.54929 c 39.03182,-9.89784 60.01883,-44.6594 57.5282,-95.28606 -2.14838,-43.66969 -25.94832,-73.56794 -60.90953,-76.51649 -16.80945,-1.41768 -30.30782,3.68982 -42.68117,16.14963 -12.7512,12.84032 -16.61208,21.60402 -27.60638,62.66307 -10.68086,39.88847 -13.25373,46.26241 -21.66138,53.66311 -9.14869,8.05301 -22.83651,9.39654 -33.29408,3.268 -13.43497,-7.87342 -20.11,-24.11141 -20.14174,-48.99775 -0.0442,-34.61227 14.65948,-56.57345 41.60359,-62.13867 l 6.8593,-1.41676 -0.81035,-11.43017 c -0.4457,-6.2866 -1.29269,-12.6988 -1.88221,-14.24933 -1.00915,-2.65429 -1.43582,-2.77638 -7.29584,-2.08765 -7.62968,0.89672 -20.84402,5.51066 -29.30661,10.23275 -9.72244,5.42509 -20.65733,17.34787 -26.22546,28.59473 -8.05127,16.26251 -9.64358,24.4336 -9.80241,50.30227 -0.15614,25.43118 0.81121,30.8233 8.34187,46.49827 5.61941,11.69671 12.2766,19.95928 21.22757,26.34656 10.68337,7.62349 17.69409,10.02793 31.14998,10.68338 23.29291,1.13461 38.02991,-6.20305 50.68246,-25.23519 7.28065,-10.95166 10.66223,-20.23748 19.38078,-53.21949 11.39281,-43.09861 15.28426,-51.28682 27.19484,-57.22211 11.81059,-5.88547 25.28972,-2.88811 35.10953,7.80734 8.67395,9.44741 12.82837,22.88263 12.82357,41.47097 -0.003,14.21952 -2.21527,25.00698 -7.33854,35.79513 -6.58224,13.86034 -15.31674,20.96635 -32.23421,26.22438 l -8.03674,2.49785 0.28099,12.39253 c 0.16067,7.08563 0.83543,13.06058 1.57572,13.95257 1.75365,2.11302 4.77912,1.96773 15.46825,-0.74287 z M 218.71686,439.13171 v -30.50694 l 31.28588,0.36917 31.28588,0.36917 8.61079,4.65347 c 10.77502,5.82305 13.46438,9.31608 27.10357,35.2028 l 10.45604,19.84522 16.52444,0.28631 c 9.08844,0.15746 17.28153,-0.20013 18.20684,-0.79464 1.38982,-0.89294 -0.24882,-4.93614 -9.42214,-23.2484 -11.7385,-23.433 -18.45942,-33.24878 -26.78256,-39.11548 -2.79804,-1.97223 -5.08734,-3.8818 -5.08734,-4.24349 0,-0.36169 2.52544,-1.55457 5.61209,-2.65085 8.27287,-2.93827 19.3345,-10.77643 23.7066,-16.79826 4.99636,-6.88165 6.72407,-13.33447 5.99663,-22.39686 -1.41046,-17.57132 -16.40578,-32.06218 -38.20561,-36.92032 -6.48889,-1.44608 -20.10569,-1.91388 -71.44955,-2.45466 l -63.43283,-0.66812 v 74.78941 74.78942 h 17.79563 17.79564 z m 379.63334,22.18318 c 9.42513,-16.87143 66.36753,-119.98816 71.16638,-128.87485 2.72792,-5.05167 4.96848,-9.83066 4.97903,-10.61998 0.0146,-1.08639 -4.248,-1.43513 -17.54087,-1.43513 h -17.56007 l -27.15821,52.52583 c -14.93702,28.88921 -28.94033,55.83658 -31.11847,59.88304 l -3.96027,7.35721 -2.37072,-4.48695 c -1.30389,-2.46781 -15.26503,-29.28602 -31.02474,-59.59601 l -28.65403,-55.10907 -17.31165,-0.31694 c -15.35485,-0.2811 -17.31164,-0.10572 -17.31164,1.5515 0,2.49927 67.37071,125.6633 77.61151,141.88576 3.17219,5.02509 3.88077,5.201 21.76304,5.40301 l 13.84069,0.15635 z m -128.19821,-46.7853 v -11.48106 h -43.05396 -43.05396 v 11.48106 11.48105 h 43.05396 43.05396 z"
       id="path4163"
       inkscape:connector-curvature="0"
       transform="translate(-1.6236671,-1.2473331)" />
    <path
       style="fill:#ffffff;stroke-width:1.14810562"
       d="m 145.52513,864.89444 -4.87945,-0.43948 V 498.27528 132.0956 l 181.11366,0.01 181.11366,0.01 53.38691,52.45988 c 83.97526,82.51708 197.36426,194.26246 260.50198,256.72591 l 57.86133,57.2434 -14.80737,14.92215 C 843.73109,529.67622 651.3283,719.65482 559.70423,809.79713 L 502.873,865.70928 326.63879,865.52161 c -96.92882,-0.10323 -178.42997,-0.38544 -181.11366,-0.62717 z m 331.77461,-163.2579 c 35.30959,-9.03067 55.20407,-36.8685 57.90588,-81.02621 2.41233,-39.42641 -12.38335,-71.29238 -39.22125,-84.47219 -32.91105,-16.16226 -66.58196,-1.37411 -80.79657,35.48558 -1.9006,4.92843 -6.36335,19.7758 -9.91724,32.99417 -11.49912,42.76998 -14.43984,50.1729 -22.88277,57.60466 -17.16091,15.10564 -41.60861,5.78281 -50.07977,-19.09729 -3.56075,-10.45803 -4.45964,-34.16202 -1.75628,-46.31311 5.13945,-23.10085 18.72712,-37.74561 39.29081,-42.34756 3.51835,-0.78738 6.66422,-2.12794 6.99082,-2.97903 0.91015,-2.37182 -1.68794,-24.61466 -3.03215,-25.95887 -1.71162,-1.71161 -14.75435,0.91446 -25.36348,5.1068 -22.16547,8.75899 -37.45447,27.40473 -43.76509,53.37389 -2.06067,8.47993 -2.4923,13.78378 -2.55863,31.44069 -0.0701,18.66153 0.23042,22.32696 2.47557,30.19424 9.27643,32.50575 32.58834,52.46937 61.2695,52.46937 16.90398,0 28.76293,-4.72163 39.67585,-15.79693 9.41868,-9.55879 16.9645,-24.81512 22.56714,-45.62672 2.20992,-8.20896 5.85349,-21.77391 8.09685,-30.14434 7.98664,-29.79994 12.88574,-38.91834 23.84373,-44.37894 11.76669,-5.86359 25.30852,-2.91087 34.98325,7.62789 6.09469,6.639 8.0221,10.43281 10.78144,21.22172 2.72089,10.63856 2.94154,28.35917 0.49684,39.9002 -2.33531,11.02457 -8.54736,23.57923 -14.72248,29.75435 -5.99609,5.99608 -12.01381,9.3182 -23.15188,12.78114 l -8.03674,2.4987 0.33738,11.82507 c 0.49926,17.49909 0.93284,17.86184 16.56927,13.86272 z M 218.71686,439.14637 v -30.49228 l 31.28588,0.35451 31.28588,0.35451 8.61079,4.65347 c 10.73928,5.80374 13.38178,9.22684 27.18234,35.21199 l 10.5348,19.83603 14.72352,0.33122 c 16.90403,0.38028 19.88999,-0.0829 19.88999,-3.08531 0,-3.3792 -17.63646,-37.74757 -24.07594,-46.91708 -3.20913,-4.56963 -8.40453,-10.22691 -11.54532,-12.57173 -3.1408,-2.34482 -5.71054,-4.58698 -5.71054,-4.98258 0,-0.39559 2.19575,-1.4396 4.87945,-2.32 2.6837,-0.88042 8.58218,-4.07163 13.10774,-7.0916 12.92476,-8.62488 18.45875,-18.86905 17.28079,-31.9891 -1.46302,-16.29512 -13.03594,-29.19849 -31.82366,-35.48217 -9.42673,-3.15283 -38.05955,-4.46166 -99.02411,-4.52647 l -42.19288,-0.0448 v 74.62686 74.62687 h 17.79563 17.79564 z m 414.91088,-41.83484 c 21.9961,-39.77993 40.06493,-73.23286 40.15295,-74.33984 0.14505,-1.82407 -1.45407,-2.04004 -17.06153,-2.30428 l -17.22159,-0.29158 -5.19533,10.05047 c -55.46246,107.29322 -56.68726,109.56116 -58.11436,107.60949 -0.77776,-1.06364 -14.92475,-27.97022 -31.43776,-59.79239 l -30.02366,-57.85847 h -16.47895 c -9.29285,0 -16.77608,0.48077 -17.16032,1.10248 -0.7988,1.2925 2.79193,8.6135 16.91571,34.48879 17.62557,32.29068 51.31899,92.84249 57.22707,102.84509 6.44997,10.92001 5.02867,10.33296 25.74496,10.63362 l 12.65991,0.18375 z m -163.47575,17.21806 v -11.48106 h -43.05396 -43.05396 v 11.48106 11.48105 h 43.05396 43.05396 z"
       id="path4165"
       inkscape:connector-curvature="0"
       transform="translate(-1.6236671,-1.2473331)" />
    <path
       style="fill:#ffffff;stroke-width:1.14810562"
       d="m 219.45447,377.62179 c -0.40569,-3.88138 -0.73761,-13.4681 -0.73761,-21.30382 V 342.0712 l 40.47072,0.79342 c 45.50675,0.89215 49.13884,1.48819 55.8843,9.17084 4.132,4.70609 5.18206,8.17938 4.34947,14.38678 -2.00198,14.92592 -14.57604,18.2566 -68.92278,18.2566 h -30.30649 z"
       id="path4167"
       inkscape:connector-curvature="0"
       transform="translate(-1.6236671,-1.2473331)" />
    <path
       style="fill:#ffffff;stroke-width:1.14810562"
       d="m 144.95107,864.89874 -4.30539,-0.45036 V 498.27199 132.0956 h 181.14508 181.14508 l 51.05929,50.1951 c 28.0826,27.6073 102.42191,100.84209 165.19848,162.74397 62.77657,61.90189 123.48265,121.68003 134.90241,132.84032 l 20.76321,20.29146 -16.64754,16.83359 C 841.24875,532.15255 654.56568,716.54619 556.8473,812.66858 l -53.94763,53.06652 -176.8216,-0.193 c -97.25188,-0.10615 -178.75903,-0.39566 -181.127,-0.64336 z m 330.14075,-162.8723 c 34.13092,-7.54111 54.85087,-33.46207 59.41513,-74.32915 3.64147,-32.60468 -4.54313,-61.72814 -22.3444,-79.50858 -9.62239,-9.61113 -18.88448,-14.58323 -32.23729,-17.30571 -21.18783,-4.31996 -41.67155,4.23034 -55.05037,22.97909 -8.50333,11.91636 -10.51616,17.61442 -25.40514,71.91893 -2.33725,8.52469 -5.89837,19.12124 -7.91357,23.5479 -13.45343,29.55229 -48.30105,25.84456 -59.45885,-6.32631 -2.27953,-6.57249 -2.58828,-9.7224 -2.58828,-26.40643 0,-20.24171 0.83396,-24.58184 7.14399,-37.17887 6.1392,-12.25599 18.72005,-21.7146 33.18951,-24.95272 3.51835,-0.78738 6.65238,-2.09708 6.96451,-2.91047 0.87307,-2.27521 -1.84189,-24.86348 -3.14507,-26.16666 -1.90353,-1.90353 -18.2717,2.13067 -28.82814,7.10518 -26.51022,12.4924 -40.12487,35.35908 -42.29132,71.03101 -2.31682,38.14771 4.41699,60.47163 23.67466,78.48624 12.85683,12.02693 26.65838,16.90798 44.62367,15.78156 16.16378,-1.01346 29.72773,-8.20672 39.17623,-20.776 9.83009,-13.0769 13.47181,-22.42916 23.3034,-59.84522 11.28414,-42.94405 15.48339,-51.0153 29.28388,-56.28576 6.27286,-2.39563 16.48437,-1.92078 22.67902,1.05458 14.37036,6.90226 22.77783,25.1649 22.73616,49.38728 -0.024,13.95335 -2.17929,24.88565 -6.89127,34.95491 -6.85095,14.64014 -15.3578,21.84985 -31.55034,26.73947 -4.42021,1.33476 -8.44658,2.79546 -8.94749,3.246 -1.54592,1.39047 0.94766,25.39264 2.75709,26.53843 2.10974,1.33597 2.14346,1.33372 11.70428,-0.7787 z M 218.71686,439.21386 v -30.4248 h 30.48919 30.48919 l 6.91558,3.43118 c 14.02161,6.95684 16.667,10.20309 31.51604,38.67441 10.42741,19.99334 8.61936,18.75354 27.31216,18.72834 12.90486,-0.0175 16.79104,-0.68262 16.79104,-2.87418 0,-2.22685 -8.22525,-19.65639 -15.54894,-32.94863 -8.03239,-14.57851 -14.31945,-22.9085 -20.80605,-27.56683 -4.8206,-3.46189 -6.22215,-5.48103 -3.80455,-5.48103 3.16806,0 17.19308,-8.10682 22.64967,-13.09208 8.8511,-8.08655 11.08439,-12.94977 11.12297,-24.22135 0.0255,-7.44443 -0.49925,-10.27261 -2.76927,-14.92538 -6.62034,-13.56939 -22.16122,-23.55155 -40.21237,-25.82901 -5.36739,-0.6772 -36.75373,-1.5539 -69.74742,-1.94823 l -59.98851,-0.71698 v 74.80969 74.80968 h 17.79563 17.79564 z M 631.10867,401.6134 c 48.08578,-87.2427 43.96374,-79.26007 41.4422,-80.2558 -1.12995,-0.44621 -9.02919,-0.83731 -17.55387,-0.86913 l -15.49943,-0.0579 -6.92946,13.46738 c -3.8112,7.40706 -17.74753,34.31652 -30.96961,59.7988 -23.16422,44.64328 -24.10396,46.23631 -25.79155,43.72145 -0.96327,-1.43547 -15.12076,-28.35521 -31.46108,-59.82165 l -29.70969,-57.21166 -15.64048,0.0176 c -8.60227,0.009 -16.36018,0.47331 -17.2398,1.03031 -1.86773,1.18269 0.74385,6.29702 34.54686,67.65387 31.09151,56.43514 41.82355,75.21676 44.19862,77.34986 2.59983,2.33495 5.93215,2.81492 21.0377,3.0301 l 12.07594,0.17203 z m -160.95668,12.91619 v -11.48106 h -43.05396 -43.05396 v 11.48106 11.48105 h 43.05396 43.05396 z"
       id="path4169"
       inkscape:connector-curvature="0"
       transform="translate(-1.6236671,-1.2473331)" />
  </g>
</svg>
