<?xml version="1.0" encoding="utf-8"?>
<svg xmlns="http://www.w3.org/2000/svg" viewBox="22.8365 95.908 454.327 308.184" width="454.327px" height="308.184px"><g transform="matrix(1, 0, 0, 1, 2.211487054824829, -4.8360137939453125)" id="object-0"><path fill="#f98012" d="M 399.805 408.928 L 399.805 267.093 C 399.805 237.449 387.076 222.623 361.624 222.613 C 336.169 222.604 323.412 237.43 323.359 267.093 L 323.359 408.928 L 248.154 408.928 L 248.154 267.093 C 248.154 237.449 235.624 222.623 210.561 222.613 C 185.062 222.613 172.333 237.44 172.379 267.093 L 172.379 408.928 L 97.162 408.928 L 97.162 258.719 C 97.162 227.777 108.344 204.355 130.708 188.457 C 150.399 174.263 177.016 167.168 210.561 167.168 C 244.569 167.168 269.622 175.548 285.725 192.309 C 299.596 175.548 324.876 167.168 361.567 167.168 C 395.112 167.168 421.723 174.263 441.393 188.457 C 463.757 204.345 474.945 227.767 474.952 258.719 L 474.952 408.928 L 399.805 408.928 Z" style="stroke-width: 0.406;"/><path fill="#333" d="M 232.556 151.36 L 298.949 103.654 L 298.098 100.744 C 178.294 115.188 123.814 125.421 20.625 184.24 L 21.584 186.912 L 29.783 186.997 C 29.03 195.118 27.722 215.191 29.395 245.375 C 17.944 277.959 29.105 300.094 39.582 324.175 C 41.244 299.127 41.075 271.696 33.252 244.397 C 31.616 214.416 32.959 194.701 33.7 187.033 L 102.106 187.675 C 101.92 200.849 102.597 214.02 104.129 227.105 C 165.257 248.226 226.736 227.035 259.373 174.962 C 250.314 164.98 232.556 151.36 232.556 151.36 Z" style="stroke-width: 0.406;"/></g></svg>