<?xml version="1.0"?>
<!-- Generator: Adobe Illustrator 21.0.0, SVG Export Plug-In . SVG Version: 6.00 Build 0)  -->
<svg xmlns="http://www.w3.org/2000/svg" xmlns:xlink="http://www.w3.org/1999/xlink" version="1.1" id="Capa_1" x="0px" y="0px" viewBox="0 0 512 512" style="enable-background:new 0 0 512 512;" xml:space="preserve" width="512" height="512">
<g>
	<g>
		<g>
			<path style="fill:#DFEEFA;" d="M345.168,512H58.737c-24.813,0-45-20.187-45-45v-400c0-8.284,6.716-15,15-15h346.432     c8.284,0,15,6.716,15,15v400C390.168,491.813,369.981,512,345.168,512z"/>
		</g>
		<path style="fill:#C9DFF7;" d="M375.168,52H201.953v460h143.216c24.813,0,45-20.187,45-45v-400    C390.168,58.716,383.453,52,375.168,52z"/>
		<g>
			<g>
				<path style="fill:#606A70;" d="M79.273,112.714c-8.284,0-15-6.716-15-15V15c0-8.284,6.716-15,15-15s15,6.716,15,15v82.714      C94.273,105.998,87.557,112.714,79.273,112.714z"/>
			</g>
			<g>
				<path style="fill:#606A70;" d="M140.702,112.714c-8.284,0-15-6.716-15-15V15c0-8.284,6.716-15,15-15s15,6.716,15,15v82.714      C155.702,105.998,148.986,112.714,140.702,112.714z"/>
			</g>
			<g>
				<path style="fill:#606A70;" d="M201.953,112.714c-8.284,0-15-6.716-15-15V15c0-8.284,6.716-15,15-15c8.284,0,15,6.716,15,15      v82.714C216.953,105.998,210.237,112.714,201.953,112.714z"/>
			</g>
			<g>
				<path style="fill:#414952;" d="M263.56,112.714c-8.284,0-15-6.716-15-15V15c0-8.284,6.716-15,15-15c8.284,0,15,6.716,15,15      v82.714C278.56,105.998,271.845,112.714,263.56,112.714z"/>
			</g>
			<g>
				<path style="fill:#414952;" d="M324.99,112.714c-8.284,0-15-6.716-15-15V15c0-8.284,6.716-15,15-15s15,6.716,15,15v82.714      C339.99,105.998,333.274,112.714,324.99,112.714z"/>
			</g>
		</g>
		<path style="fill:#414952;" d="M216.953,97.714V15c0-8.284-6.716-15-15-15v112.714    C210.237,112.714,216.953,105.998,216.953,97.714z"/>
	</g>
	<g>
		<g>
			<path style="fill:#82A0D2;" d="M202.131,195.897H88.558c-8.284,0-15-6.716-15-15c0-8.284,6.716-15,15-15h113.573     c8.284,0,15,6.716,15,15C217.131,189.182,210.415,195.897,202.131,195.897z"/>
		</g>
		<g>
			<path style="fill:#82A0D2;" d="M314.99,255.897H88.558c-8.284,0-15-6.716-15-15c0-8.284,6.716-15,15-15H314.99     c8.284,0,15,6.716,15,15C329.99,249.181,323.274,255.897,314.99,255.897z"/>
		</g>
		<g>
			<path style="fill:#82A0D2;" d="M279.348,315.896H88.558c-8.284,0-15-6.716-15-15s6.716-15,15-15h190.79c8.284,0,15,6.716,15,15     S287.632,315.896,279.348,315.896z"/>
		</g>
		<g>
			<path style="fill:#82A0D2;" d="M229.047,375.896H88.558c-8.284,0-15-6.716-15-15c0-8.284,6.716-15,15-15h140.489     c8.284,0,15,6.716,15,15C244.047,369.18,237.331,375.896,229.047,375.896z"/>
		</g>
		<g>
			<path style="fill:#82A0D2;" d="M201.774,435.895H88.558c-8.284,0-15-6.716-15-15c0-8.284,6.716-15,15-15h113.216     c8.284,0,15,6.716,15,15C216.774,429.179,210.058,435.895,201.774,435.895z"/>
		</g>
		<g>
			<path style="fill:#9EBBDB;" d="M216.774,420.895c0-8.284-6.716-15-15-15v30C210.058,435.895,216.774,429.179,216.774,420.895z"/>
			<path style="fill:#5877A6;" d="M229.047,345.896h-27.273v30h27.273c8.284,0,15-6.716,15-15     C244.047,352.611,237.331,345.896,229.047,345.896z"/>
			<path style="fill:#5877A6;" d="M279.348,285.896h-77.574v30h77.574c8.284,0,15-6.716,15-15S287.632,285.896,279.348,285.896z"/>
			<path style="fill:#5877A6;" d="M314.99,225.897H201.774v30H314.99c8.284,0,15-6.716,15-15     C329.99,232.613,323.274,225.897,314.99,225.897z"/>
			<path style="fill:#5877A6;" d="M202.131,165.897h-0.357v30h0.357c8.284,0,15-6.716,15-15     C217.131,172.613,210.415,165.897,202.131,165.897z"/>
		</g>
	</g>
	<g>
		<g>
			<path style="fill:#FFEDD6;" d="M201.778,435.896c-3.898,0-7.736-1.519-10.61-4.394c-4.421-4.421-5.636-11.121-3.049-16.814     l35.355-77.781c0.762-1.677,1.814-3.174,3.087-4.438c2.125-2.11,12.493-12.493,12.493-12.493l63.6,63.679     c0,0-10.362,10.362-12.493,12.493c-1.255,1.255-2.738,2.293-4.398,3.048l-77.782,35.355     C205.99,435.456,203.875,435.896,201.778,435.896z"/>
		</g>
		<path style="fill:#FFDAAB;" d="M201.778,435.896c2.097,0,4.212-0.44,6.203-1.345l77.782-35.355    c1.66-0.754,3.144-1.793,4.398-3.048c2.131-2.131,12.493-12.493,12.493-12.493l-31.799-31.838l-79.686,79.686    C194.044,434.377,197.881,435.896,201.778,435.896z"/>
		<g>
			<path style="fill:#FFE645;" d="M226.523,332.507l194.942-194.939c8.5-8.5,19.8-13.181,31.82-13.181     c12.02,0,23.321,4.681,31.82,13.181c17.545,17.545,17.545,46.093,0.001,63.639l-194.943,194.94L226.523,332.507z"/>
		</g>
		<path style="fill:#FFB500;" d="M290.162,396.147l194.943-194.94c17.545-17.545,17.544-46.094-0.001-63.639l-226.76,226.76    L290.162,396.147z"/>
		
			<rect x="372.323" y="170.349" transform="matrix(0.7071 -0.7071 0.7071 0.7071 -32.9739 351.09)" style="fill:#606A70;" width="69.999" height="90"/>
		
			<rect x="388.233" y="208.759" transform="matrix(0.7071 -0.7071 0.7071 0.7071 -39.5638 367.0003)" style="fill:#414952;" width="70" height="44.999"/>
		<g>
			<path style="fill:#FF826E;" d="M485.104,137.568c-8.499-8.5-19.8-13.181-31.82-13.181c-12.02,0-23.32,4.681-31.82,13.181     l-21.213,21.213l63.64,63.639l21.214-21.213C502.65,183.661,502.649,155.113,485.104,137.568z"/>
			<path style="fill:#FE5857;" d="M463.891,222.42l21.214-21.213c17.545-17.545,17.544-46.094-0.001-63.639L432.072,190.6     L463.891,222.42z"/>
		</g>
		<g>
			<path style="fill:#416191;" d="M197.136,394.851l-9.017,19.837c-2.587,5.692-1.373,12.392,3.049,16.814     c2.874,2.875,6.712,4.394,10.61,4.394c2.097,0,4.212-0.44,6.203-1.345l19.838-9.017L197.136,394.851z"/>
			<path style="fill:#28415E;" d="M201.778,435.896c2.097,0,4.212-0.44,6.203-1.345l19.838-9.017l-15.34-15.34l-21.309,21.31     C194.044,434.377,197.881,435.896,201.778,435.896z"/>
		</g>
	</g>
</g>















</svg>
