<?xml version="1.0" encoding="UTF-8" standalone="no"?>
<!-- Generator: Adobe Illustrator 19.0.0, SVG Export Plug-In . SVG Version: 6.00 Build 0)  -->

<svg
   xmlns:dc="http://purl.org/dc/elements/1.1/"
   xmlns:cc="http://creativecommons.org/ns#"
   xmlns:rdf="http://www.w3.org/1999/02/22-rdf-syntax-ns#"
   xmlns:svg="http://www.w3.org/2000/svg"
   xmlns="http://www.w3.org/2000/svg"
   xmlns:sodipodi="http://sodipodi.sourceforge.net/DTD/sodipodi-0.dtd"
   xmlns:inkscape="http://www.inkscape.org/namespaces/inkscape"
   version="1.1"
   id="Capa_1"
   x="0px"
   y="0px"
   viewBox="0 0 47 47"
   style="enable-background:new 0 0 47 47;"
   xml:space="preserve"
   sodipodi:docname="saveas.svg"
   inkscape:version="0.92.3 (2405546, 2018-03-11)"><metadata
   id="metadata271"><rdf:RDF><cc:Work
       rdf:about=""><dc:format>image/svg+xml</dc:format><dc:type
         rdf:resource="http://purl.org/dc/dcmitype/StillImage" /><dc:title></dc:title></cc:Work></rdf:RDF></metadata><defs
   id="defs269" /><sodipodi:namedview
   pagecolor="#ffffff"
   bordercolor="#666666"
   borderopacity="1"
   objecttolerance="10"
   gridtolerance="10"
   guidetolerance="10"
   inkscape:pageopacity="0"
   inkscape:pageshadow="2"
   inkscape:window-width="1853"
   inkscape:window-height="1025"
   id="namedview267"
   showgrid="false"
   inkscape:zoom="8.9787234"
   inkscape:cx="37.328643"
   inkscape:cy="19.596668"
   inkscape:window-x="67"
   inkscape:window-y="27"
   inkscape:window-maximized="1"
   inkscape:current-layer="Capa_1" />
<polygon
   style="fill:#424A60;"
   points="46.5,8 46.5,47 0.5,47 0.5,0 38.5,0 "
   id="polygon216" />
<rect
   x="7.5"
   y="26"
   style="fill:#E7ECED;"
   width="31"
   height="21"
   id="rect218" />

<rect
   x="9.5"
   style="fill:#C7CAC7;"
   width="26"
   height="16"
   id="rect222" />

<rect
   x="27.5"
   y="4"
   style="fill:none;stroke:#424A60;stroke-width:2;stroke-linecap:round;stroke-miterlimit:10;"
   width="4"
   height="8"
   id="rect232" />
<polygon
   style="fill:#E7ECED;"
   points="24.5,16 9.5,16 9.5,0 16.5,0 "
   id="polygon234" />
<g
   id="g236">
</g>
<g
   id="g238">
</g>
<g
   id="g240">
</g>
<g
   id="g242">
</g>
<g
   id="g244">
</g>
<g
   id="g246">
</g>
<g
   id="g248">
</g>
<g
   id="g250">
</g>
<g
   id="g252">
</g>
<g
   id="g254">
</g>
<g
   id="g256">
</g>
<g
   id="g258">
</g>
<g
   id="g260">
</g>
<g
   id="g262">
</g>
<g
   id="g264">
</g>
<g
   id="g358"
   transform="matrix(0.4420831,0,0,0.4420831,20.415636,20.972508)"><path
     id="path273"
     d="m 39.598,2.343 c 3.124,-3.124 8.19,-3.124 11.314,0 3.124,3.124 3.124,8.19 0,11.314 z"
     style="fill:#d75a4a"
     inkscape:connector-curvature="0" /><polygon
     id="polygon275"
     points="42.426,17.899 16.512,43.814 15.982,48.587 44.548,20.02 "
     style="fill:#ed8a19" /><polygon
     id="polygon277"
     points="41.012,16.485 36.77,12.243 10.855,38.157 10.325,42.93 15.098,42.4 "
     style="fill:#ed8a19" /><polygon
     id="polygon279"
     points="35.356,10.829 33.234,8.707 4.668,37.273 9.441,36.743 "
     style="fill:#ed8a19" /><polygon
     id="polygon281"
     points="50.912,13.657 39.598,2.343 37.476,4.465 37.477,4.465 48.79,15.778 "
     style="fill:#c7cac7" /><polygon
     id="polygon283"
     points="34.648,7.293 45.962,18.606 47.376,17.192 36.062,5.879 "
     style="fill:#c7cac7" /><path
     id="path285"
     d="m 14.424,44.488 -5.122,0.569 c -0.036,0.004 -0.073,0.006 -0.109,0.006 0,0 -10e-4,0 -10e-4,0 v 0 0 c -10e-4,0 -10e-4,0 -10e-4,0 -0.036,0 -0.073,-0.002 -0.109,-0.006 C 9.043,45.053 9.011,45.031 8.974,45.022 8.902,45.005 8.833,44.987 8.767,44.955 8.717,44.931 8.674,44.902 8.629,44.871 8.572,44.831 8.52,44.788 8.472,44.737 8.434,44.697 8.403,44.656 8.372,44.61 8.334,44.553 8.303,44.494 8.277,44.429 8.255,44.375 8.239,44.322 8.227,44.264 8.22,44.232 8.203,44.205 8.199,44.172 c -0.004,-0.038 0.01,-0.073 0.01,-0.11 0,-0.038 -0.014,-0.072 -0.01,-0.11 L 8.768,38.83 3.646,39.399 c -0.037,0.004 -0.075,0.006 -0.111,0.006 -0.079,0 -0.152,-0.024 -0.227,-0.042 L 0.442,51.399 2.548,49.293 c 0.391,-0.391 1.023,-0.391 1.414,0 0.391,0.391 0.391,1.023 0,1.414 l -2.106,2.106 12.03,-2.864 C 13.86,49.84 13.843,49.727 13.856,49.61 Z"
     style="fill:#fbce9d"
     inkscape:connector-curvature="0" /><path
     id="path287"
     d="m 3.962,49.293 c -0.391,-0.391 -1.023,-0.391 -1.414,0 L 0.442,51.399 0,53.255 1.856,52.813 3.962,50.707 c 0.39,-0.391 0.39,-1.023 0,-1.414 z"
     style="fill:#38454f"
     inkscape:connector-curvature="0" /><polygon
     id="polygon289"
     points="48.79,15.778 37.477,4.465 37.476,4.465 36.062,5.879 47.376,17.192 "
     style="fill:#f2ecbf" /><path
     id="path291"
     d="M 41.012,16.485 15.098,42.4 10.325,42.93 10.855,38.157 36.77,12.243 35.356,10.829 9.441,36.743 4.668,37.273 3.535,38.406 3.307,39.363 c 0.075,0.018 0.147,0.042 0.227,0.042 0.036,0 0.074,-0.002 0.111,-0.006 L 8.767,38.83 8.198,43.952 c -0.004,0.038 0.01,0.073 0.01,0.11 0,0.038 -0.014,0.072 -0.01,0.11 0.004,0.033 0.021,0.06 0.028,0.092 0.012,0.057 0.029,0.112 0.05,0.165 0.026,0.064 0.057,0.124 0.095,0.181 0.03,0.045 0.063,0.088 0.1,0.127 0.047,0.05 0.1,0.094 0.157,0.134 0.044,0.031 0.089,0.061 0.138,0.084 0.065,0.031 0.135,0.05 0.207,0.067 0.038,0.009 0.069,0.03 0.108,0.035 0.036,0.004 0.072,0.006 0.109,0.006 h 0.001 v 0 h 10e-4 10e-4 c 0,0 0.001,0 0.001,0 v 0 c 0.035,0 0.072,-0.002 0.109,-0.006 l 5.122,-0.569 -0.569,5.122 c -0.013,0.118 0.004,0.23 0.03,0.339 l 0.963,-0.229 1.133,-1.132 0.53,-4.773 L 42.426,17.9 Z"
     style="fill:#ebba16"
     inkscape:connector-curvature="0" /><polygon
     id="polygon293"
     points="42.426,17.899 44.548,20.02 45.962,18.606 34.648,7.293 33.234,8.707 35.356,10.829 36.77,12.243 41.012,16.485 "
     style="fill:#f2ecbf" /><g
     id="g295" /><g
     id="g297" /><g
     id="g299" /><g
     id="g301" /><g
     id="g303" /><g
     id="g305" /><g
     id="g307" /><g
     id="g309" /><g
     id="g311" /><g
     id="g313" /><g
     id="g315" /><g
     id="g317" /><g
     id="g319" /><g
     id="g321" /><g
     id="g323" /></g></svg>