<?xml version="1.0" encoding="iso-8859-1"?>
<!-- Generator: Adobe Illustrator 19.0.0, SVG Export Plug-In . SVG Version: 6.00 Build 0)  -->
<svg version="1.1" id="Layer_1" xmlns="http://www.w3.org/2000/svg" xmlns:xlink="http://www.w3.org/1999/xlink" x="0px" y="0px"
	 viewBox="0 0 280.027 280.027" style="enable-background:new 0 0 280.027 280.027;" xml:space="preserve">
<g>
	<path style="fill:#CCD0D2;" d="M17.502,52.505v175.017c0,28.983,54.85,52.505,122.512,52.505s122.512-23.522,122.512-52.505V52.505
		H17.502z"/>
	<path style="fill:#ADB0B2;" d="M227.522,122.512c4.839,0,8.751-3.912,8.751-8.751c0-4.83-3.912-8.751-8.751-8.751
		c-4.839,0-8.751,3.92-8.751,8.751C218.771,118.6,222.682,122.512,227.522,122.512z M227.522,166.266
		c-4.839,0-8.751,3.92-8.751,8.751c0,4.839,3.912,8.751,8.751,8.751c4.839,0,8.751-3.912,8.751-8.751
		C236.272,170.187,232.353,166.266,227.522,166.266z M227.522,227.522c-4.839,0-8.751,3.912-8.751,8.751s3.912,8.751,8.751,8.751
		c4.839,0,8.751-3.912,8.751-8.751S232.353,227.522,227.522,227.522z"/>
	<path style="fill:#B7BBBD;" d="M140.014,166.275c67.662,0,122.512-25.342,122.512-56.609c0-1.593-0.236-3.15-0.516-4.717
		c-5.198,29.053-57.782,51.893-121.996,51.893S23.225,134.011,18.018,104.949c-0.28,1.566-0.516,3.124-0.516,4.717
		C17.502,140.924,72.343,166.275,140.014,166.275z M140.014,218.098c-64.214,0-116.789-22.822-121.996-51.893
		c-0.28,1.566-0.516,3.124-0.516,4.717c0,31.249,54.85,56.609,122.512,56.609s122.512-25.342,122.512-56.609
		c0-1.601-0.236-3.15-0.516-4.717C256.82,195.249,204.236,218.098,140.014,218.098z"/>
	<path style="fill:#C2C5C7;" d="M43.754,259.935V52.505H17.502v175.017C17.502,239.756,27.355,251.01,43.754,259.935z"/>
	<g>
		<path style="fill:#B2B5B7;" d="M43.754,205.864v-9.486c-14.369-8.462-23.697-18.823-25.736-30.173
			c-0.28,1.566-0.516,3.124-0.516,4.717C17.502,184.127,27.355,196.238,43.754,205.864z M43.754,144.608v-9.477
			c-14.369-8.462-23.697-18.832-25.736-30.19c-0.28,1.575-0.516,3.133-0.516,4.725C17.502,122.871,27.355,134.982,43.754,144.608z"
			/>
	</g>
	<path style="fill:#E4E7E7;" d="M140.014,0c67.662,0,122.512,23.514,122.512,52.505s-54.85,52.505-122.512,52.505
		S17.502,81.497,17.502,52.505S72.343,0,140.014,0z"/>
</g>
<g>
</g>
<g>
</g>
<g>
</g>
<g>
</g>
<g>
</g>
<g>
</g>
<g>
</g>
<g>
</g>
<g>
</g>
<g>
</g>
<g>
</g>
<g>
</g>
<g>
</g>
<g>
</g>
<g>
</g>
</svg>
