<?xml version="1.0" encoding="UTF-8" standalone="no"?>
<!-- Generator: Adobe Illustrator 19.0.0, SVG Export Plug-In . SVG Version: 6.00 Build 0)  -->

<svg
   xmlns:dc="http://purl.org/dc/elements/1.1/"
   xmlns:cc="http://creativecommons.org/ns#"
   xmlns:rdf="http://www.w3.org/1999/02/22-rdf-syntax-ns#"
   xmlns:svg="http://www.w3.org/2000/svg"
   xmlns="http://www.w3.org/2000/svg"
   xmlns:sodipodi="http://sodipodi.sourceforge.net/DTD/sodipodi-0.dtd"
   xmlns:inkscape="http://www.inkscape.org/namespaces/inkscape"
   version="1.1"
   id="Layer_1"
   x="0px"
   y="0px"
   viewBox="0 0 280.027 280.027"
   style="enable-background:new 0 0 280.027 280.027;"
   xml:space="preserve"
   sodipodi:docname="server.svg"
   inkscape:version="0.92.5 (2060ec1f9f, 2020-04-08)"><metadata
   id="metadata964"><rdf:RDF><cc:Work
       rdf:about=""><dc:format>image/svg+xml</dc:format><dc:type
         rdf:resource="http://purl.org/dc/dcmitype/StillImage" /></cc:Work></rdf:RDF></metadata><defs
   id="defs962" /><sodipodi:namedview
   pagecolor="#ffffff"
   bordercolor="#666666"
   borderopacity="1"
   objecttolerance="10"
   gridtolerance="10"
   guidetolerance="10"
   inkscape:pageopacity="0"
   inkscape:pageshadow="2"
   inkscape:window-width="1848"
   inkscape:window-height="1016"
   id="namedview960"
   showgrid="false"
   inkscape:zoom="1.4962842"
   inkscape:cx="0.41338502"
   inkscape:cy="153.04043"
   inkscape:window-x="72"
   inkscape:window-y="27"
   inkscape:window-maximized="1"
   inkscape:current-layer="Layer_1" />
<g
   id="g927"
   transform="matrix(0.8786228,0,0,0.8786228,18.832399,12.0298)">
	<path
   style="fill:#ccd0d2"
   d="m 17.502,52.505 v 175.017 c 0,28.983 54.85,52.505 122.512,52.505 67.662,0 122.512,-23.522 122.512,-52.505 V 52.505 Z"
   id="path913"
   inkscape:connector-curvature="0" />
	<path
   style="fill:#adb0b2"
   d="m 227.522,122.512 c 4.839,0 8.751,-3.912 8.751,-8.751 0,-4.83 -3.912,-8.751 -8.751,-8.751 -4.839,0 -8.751,3.92 -8.751,8.751 0,4.839 3.911,8.751 8.751,8.751 z m 0,43.754 c -4.839,0 -8.751,3.92 -8.751,8.751 0,4.839 3.912,8.751 8.751,8.751 4.839,0 8.751,-3.912 8.751,-8.751 -0.001,-4.83 -3.92,-8.751 -8.751,-8.751 z m 0,61.256 c -4.839,0 -8.751,3.912 -8.751,8.751 0,4.839 3.912,8.751 8.751,8.751 4.839,0 8.751,-3.912 8.751,-8.751 0,-4.839 -3.92,-8.751 -8.751,-8.751 z"
   id="path915"
   inkscape:connector-curvature="0" />
	<path
   style="fill:#b7bbbd"
   d="m 140.014,166.275 c 67.662,0 122.512,-25.342 122.512,-56.609 0,-1.593 -0.236,-3.15 -0.516,-4.717 -5.198,29.053 -57.782,51.893 -121.996,51.893 -64.214,0 -116.789,-22.831 -121.996,-51.893 -0.28,1.566 -0.516,3.124 -0.516,4.717 0,31.258 54.841,56.609 122.512,56.609 z m 0,51.823 c -64.214,0 -116.789,-22.822 -121.996,-51.893 -0.28,1.566 -0.516,3.124 -0.516,4.717 0,31.249 54.85,56.609 122.512,56.609 67.662,0 122.512,-25.342 122.512,-56.609 0,-1.601 -0.236,-3.15 -0.516,-4.717 -5.19,29.044 -57.774,51.893 -121.996,51.893 z"
   id="path917"
   inkscape:connector-curvature="0" />
	<path
   style="fill:#c2c5c7"
   d="M 43.754,259.935 V 52.505 H 17.502 v 175.017 c 0,12.234 9.853,23.488 26.252,32.413 z"
   id="path919"
   inkscape:connector-curvature="0" />
	<g
   id="g923">
		<path
   style="fill:#b2b5b7"
   d="m 43.754,205.864 v -9.486 c -14.369,-8.462 -23.697,-18.823 -25.736,-30.173 -0.28,1.566 -0.516,3.124 -0.516,4.717 0,13.205 9.853,25.316 26.252,34.942 z m 0,-61.256 v -9.477 c -14.369,-8.462 -23.697,-18.832 -25.736,-30.19 -0.28,1.575 -0.516,3.133 -0.516,4.725 0,13.205 9.853,25.316 26.252,34.942 z"
   id="path921"
   inkscape:connector-curvature="0" />
	</g>
	<path
   style="fill:#e4e7e7"
   d="m 140.014,0 c 67.662,0 122.512,23.514 122.512,52.505 0,28.991 -54.85,52.505 -122.512,52.505 C 72.352,105.01 17.502,81.497 17.502,52.505 17.502,23.513 72.343,0 140.014,0 Z"
   id="path925"
   inkscape:connector-curvature="0" />
</g>
<g
   id="g929"
   transform="matrix(0.92908296,0,0,0.92908296,13.27099,10.024833)">
</g>
<g
   id="g931"
   transform="matrix(0.92908296,0,0,0.92908296,13.27099,10.024833)">
</g>
<g
   id="g933"
   transform="matrix(0.92908296,0,0,0.92908296,13.27099,10.024833)">
</g>
<g
   id="g935"
   transform="matrix(0.92908296,0,0,0.92908296,13.27099,10.024833)">
</g>
<g
   id="g937"
   transform="matrix(0.92908296,0,0,0.92908296,13.27099,10.024833)">
</g>
<g
   id="g939"
   transform="matrix(0.92908296,0,0,0.92908296,13.27099,10.024833)">
</g>
<g
   id="g941"
   transform="matrix(0.92908296,0,0,0.92908296,13.27099,10.024833)">
</g>
<g
   id="g943"
   transform="matrix(0.92908296,0,0,0.92908296,13.27099,10.024833)">
</g>
<g
   id="g945"
   transform="matrix(0.92908296,0,0,0.92908296,13.27099,10.024833)">
</g>
<g
   id="g947"
   transform="matrix(0.92908296,0,0,0.92908296,13.27099,10.024833)">
</g>
<g
   id="g949"
   transform="matrix(0.92908296,0,0,0.92908296,13.27099,10.024833)">
</g>
<g
   id="g951"
   transform="matrix(0.92908296,0,0,0.92908296,13.27099,10.024833)">
</g>
<g
   id="g953"
   transform="matrix(0.92908296,0,0,0.92908296,13.27099,10.024833)">
</g>
<g
   id="g955"
   transform="matrix(0.92908296,0,0,0.92908296,13.27099,10.024833)">
</g>
<g
   id="g957"
   transform="matrix(0.92908296,0,0,0.92908296,13.27099,10.024833)">
</g>
</svg>