<?xml version="1.0" encoding="UTF-8" standalone="no"?>
<!-- Generator: Adobe Illustrator 19.1.0, SVG Export Plug-In . SVG Version: 6.00 Build 0)  -->

<svg
   xmlns:dc="http://purl.org/dc/elements/1.1/"
   xmlns:cc="http://creativecommons.org/ns#"
   xmlns:rdf="http://www.w3.org/1999/02/22-rdf-syntax-ns#"
   xmlns:svg="http://www.w3.org/2000/svg"
   xmlns="http://www.w3.org/2000/svg"
   xmlns:sodipodi="http://sodipodi.sourceforge.net/DTD/sodipodi-0.dtd"
   xmlns:inkscape="http://www.inkscape.org/namespaces/inkscape"
   version="1.1"
   id="Capa_1"
   x="0px"
   y="0px"
   viewBox="0 0 487.85 487.85"
   style="enable-background:new 0 0 487.85 487.85;"
   xml:space="preserve"
   sodipodi:docname="tag.svg"
   inkscape:version="0.92.3 (2405546, 2018-03-11)"><metadata
   id="metadata217"><rdf:RDF><cc:Work
       rdf:about=""><dc:format>image/svg+xml</dc:format><dc:type
         rdf:resource="http://purl.org/dc/dcmitype/StillImage" /><dc:title></dc:title></cc:Work></rdf:RDF></metadata><defs
   id="defs215" /><sodipodi:namedview
   pagecolor="#ffffff"
   bordercolor="#666666"
   borderopacity="1"
   objecttolerance="10"
   gridtolerance="10"
   guidetolerance="10"
   inkscape:pageopacity="0"
   inkscape:pageshadow="2"
   inkscape:window-width="1853"
   inkscape:window-height="1025"
   id="namedview213"
   showgrid="false"
   inkscape:zoom="0.17103331"
   inkscape:cx="3380.4123"
   inkscape:cy="-412.7946"
   inkscape:window-x="67"
   inkscape:window-y="27"
   inkscape:window-maximized="1"
   inkscape:current-layer="Capa_1" />
<g
   id="g180">
	<path
   d="M479,215.275l-83.5-113.9c-11-15-33.3-26.3-51.8-26.3H39.2c-21.6,0-39.2,17.6-39.2,39.2v259.3c0,21.6,17.6,39.2,39.2,39.2   h304.5c18.6,0,40.9-11.3,51.8-26.3l83.5-113.9C490.8,256.575,490.8,231.375,479,215.275z M457.2,256.775l-83.5,113.9   c-5.8,8-20.2,15.2-30.1,15.2H39.2c-6.7,0-12.2-5.5-12.2-12.2v-259.4c0-6.7,5.5-12.2,12.2-12.2h304.5c9.9,0,24.2,7.3,30.1,15.2   l83.5,113.9C462.1,237.875,462.1,250.075,457.2,256.775z"
   id="path178" />
</g>
<g
   id="g182">
</g>
<g
   id="g184">
</g>
<g
   id="g186">
</g>
<g
   id="g188">
</g>
<g
   id="g190">
</g>
<g
   id="g192">
</g>
<g
   id="g194">
</g>
<g
   id="g196">
</g>
<g
   id="g198">
</g>
<g
   id="g200">
</g>
<g
   id="g202">
</g>
<g
   id="g204">
</g>
<g
   id="g206">
</g>
<g
   id="g208">
</g>
<g
   id="g210">
</g>
<text
   xml:space="preserve"
   style="font-style:normal;font-variant:normal;font-weight:normal;font-stretch:normal;font-size:40px;line-height:1.25;font-family:sans-serif;-inkscape-font-specification:sans-serif;letter-spacing:0px;word-spacing:0px;fill:#000000;fill-opacity:1;stroke:none"
   x="60.660694"
   y="324.31653"
   id="text3924"><tspan
     sodipodi:role="line"
     id="tspan3922"
     x="60.660694"
     y="324.31653"
     style="font-style:normal;font-variant:normal;font-weight:normal;font-stretch:normal;font-size:240px;line-height:6.25;font-family:sans-serif;-inkscape-font-specification:sans-serif">0x</tspan></text>
</svg>