<?xml version="1.0"?>
<svg xmlns="http://www.w3.org/2000/svg" xmlns:xlink="http://www.w3.org/1999/xlink" version="1.1" id="Capa_1" x="0px" y="0px" width="512px" height="512px" viewBox="0 0 485.539 485.539" style="enable-background:new 0 0 485.539 485.539;" xml:space="preserve" class=""><g><g>
	<g>
		<polygon points="162.295,282.887 52.18,393.002 52.18,314.268 0,314.268 0,482.08 167.813,482.08 167.813,429.9 89.076,429.9     199.193,319.785   " data-original="#000000" class="active-path" data-old_color="#2C2B2B" fill="#353535"/>
		<polygon points="433.359,393.002 323.246,282.889 286.348,319.785 396.465,429.9 317.727,429.9 317.727,482.08 485.539,482.08     485.539,314.268 433.359,314.268   " data-original="#000000" class="active-path" data-old_color="#2C2B2B" fill="#353535"/>
		<polygon points="317.727,3.459 317.727,55.639 396.465,55.639 286.348,165.754 323.246,202.651 433.359,92.538 433.359,171.273     485.539,171.273 485.539,3.459   " data-original="#000000" class="active-path" data-old_color="#2C2B2B" fill="#353535"/>
		<polygon points="167.813,55.639 167.813,3.459 0,3.459 0,171.273 52.18,171.273 52.18,92.537 162.295,202.651 199.193,165.754     89.076,55.639   " data-original="#000000" class="active-path" data-old_color="#2C2B2B" fill="#353535"/>
	</g>
</g></g> </svg>
