<?xml version="1.0" encoding="iso-8859-1"?>
<!-- Generator: Adobe Illustrator 19.0.0, SVG Export Plug-In . SVG Version: 6.00 Build 0)  -->
<svg version="1.1" id="Capa_1" xmlns="http://www.w3.org/2000/svg" xmlns:xlink="http://www.w3.org/1999/xlink" x="0px" y="0px"
	 viewBox="0 0 58 58" style="enable-background:new 0 0 58 58;" xml:space="preserve">
<path style="fill:#EFCE4A;" d="M46.324,52.5H1.565c-1.03,0-1.779-0.978-1.51-1.973l10.166-27.871
	c0.184-0.682,0.803-1.156,1.51-1.156H56.49c1.03,0,1.51,0.984,1.51,1.973L47.834,51.344C47.65,52.026,47.031,52.5,46.324,52.5z"/>
<g>
	<path style="fill:#F4EFDC;" d="M10.221,22.656c0.184-0.683,0.803-1.156,1.51-1.156H53v-9H9l-6,6v23.953L10.221,22.656z"/>
</g>
<path style="fill:#EBBA16;" d="M3,18.5l6-6h16l-5-7H1.732C0.776,5.5,0,6.275,0,7.232V49.96c0.069,0.002,0.138,0.006,0.205,0.01
	L3,42.349V18.5z"/>
<g>
	<rect x="28" y="17.5" style="fill:#D1BF86;" width="2" height="4"/>
	<rect x="35" y="17.5" style="fill:#D1BF86;" width="2" height="4"/>
	<rect x="42" y="17.5" style="fill:#D1BF86;" width="2" height="4"/>
	<rect x="14" y="17.5" style="fill:#D1BF86;" width="2" height="4"/>
	<rect x="21" y="17.5" style="fill:#D1BF86;" width="2" height="4"/>
</g>
<polygon style="fill:#D1BF86;" points="9,18.5 9,12.5 3,18.5 "/>
<g>
</g>
<g>
</g>
<g>
</g>
<g>
</g>
<g>
</g>
<g>
</g>
<g>
</g>
<g>
</g>
<g>
</g>
<g>
</g>
<g>
</g>
<g>
</g>
<g>
</g>
<g>
</g>
<g>
</g>
</svg>
