<?xml version="1.0" encoding="iso-8859-1"?>
<!-- Generator: Adobe Illustrator 19.0.0, SVG Export Plug-In . SVG Version: 6.00 Build 0)  -->
<svg version="1.1" id="Capa_1" xmlns="http://www.w3.org/2000/svg" xmlns:xlink="http://www.w3.org/1999/xlink" x="0px" y="0px"
	 viewBox="0 0 58 58" style="enable-background:new 0 0 58 58;" xml:space="preserve">
<path style="fill:#28812F;" d="M27.5,0c0,1.657-1.343,3-3,3s-3-1.343-3-3h-3v58h3c0-1.657,1.343-3,3-3s3,1.343,3,3h14.905
	c1.157,0,2.095-0.938,2.095-2.095V2.095C44.5,0.938,43.562,0,42.405,0H27.5z M39.622,54.925c-1.862,0.449-3.496-1.186-3.047-3.047
	c0.211-0.875,0.929-1.592,1.803-1.803c1.861-0.448,3.495,1.186,3.046,3.047C41.214,53.997,40.497,54.714,39.622,54.925z
	 M39.622,7.925c-1.862,0.449-3.496-1.186-3.047-3.047c0.211-0.875,0.929-1.592,1.803-1.803c1.861-0.448,3.495,1.186,3.046,3.047
	C41.214,6.997,40.497,7.714,39.622,7.925z"/>
<g>
	<rect x="38.5" y="10" style="fill:#ECD361;" width="6" height="2"/>
	<rect x="38.5" y="13" style="fill:#ECD361;" width="6" height="2"/>
	<rect x="38.5" y="16" style="fill:#ECD361;" width="6" height="2"/>
	<rect x="38.5" y="19" style="fill:#ECD361;" width="6" height="2"/>
	<rect x="38.5" y="22" style="fill:#ECD361;" width="6" height="2"/>
	<rect x="38.5" y="25" style="fill:#ECD361;" width="6" height="2"/>
	<rect x="38.5" y="28" style="fill:#ECD361;" width="6" height="2"/>
	<rect x="38.5" y="31" style="fill:#ECD361;" width="6" height="2"/>
	<rect x="38.5" y="34" style="fill:#ECD361;" width="6" height="2"/>
	<rect x="38.5" y="37" style="fill:#ECD361;" width="6" height="2"/>
	<rect x="38.5" y="40" style="fill:#ECD361;" width="6" height="2"/>
	<rect x="38.5" y="43" style="fill:#ECD361;" width="6" height="2"/>
	<rect x="38.5" y="46" style="fill:#ECD361;" width="6" height="2"/>
</g>
<rect x="22.5" y="8" style="fill:#38454F;" width="10" height="6"/>
<rect x="22.5" y="44" style="fill:#38454F;" width="10" height="6"/>
<rect x="22.5" y="26" style="fill:#38454F;" width="10" height="6"/>
<g>
	<rect x="23.5" y="5" style="fill:#ECD361;" width="2" height="3"/>
	<rect x="26.5" y="5" style="fill:#ECD361;" width="2" height="3"/>
	<rect x="29.5" y="5" style="fill:#ECD361;" width="2" height="3"/>
	<rect x="23.5" y="14" style="fill:#ECD361;" width="2" height="3"/>
	<rect x="26.5" y="14" style="fill:#ECD361;" width="2" height="3"/>
	<rect x="29.5" y="14" style="fill:#ECD361;" width="2" height="3"/>
	<rect x="23.5" y="41" style="fill:#ECD361;" width="2" height="3"/>
	<rect x="26.5" y="41" style="fill:#ECD361;" width="2" height="3"/>
	<rect x="29.5" y="41" style="fill:#ECD361;" width="2" height="3"/>
	<rect x="23.5" y="50" style="fill:#ECD361;" width="2" height="3"/>
	<rect x="26.5" y="50" style="fill:#ECD361;" width="2" height="3"/>
	<rect x="29.5" y="50" style="fill:#ECD361;" width="2" height="3"/>
	<rect x="23.5" y="23" style="fill:#ECD361;" width="2" height="3"/>
	<rect x="26.5" y="23" style="fill:#ECD361;" width="2" height="3"/>
	<rect x="29.5" y="23" style="fill:#ECD361;" width="2" height="3"/>
	<rect x="23.5" y="32" style="fill:#ECD361;" width="2" height="3"/>
	<rect x="26.5" y="32" style="fill:#ECD361;" width="2" height="3"/>
	<rect x="29.5" y="32" style="fill:#ECD361;" width="2" height="3"/>
</g>
<polygon style="fill:#283238;" points="15.5,3 15.5,55 13.5,55 13.5,58 18.5,58 18.5,0 13.5,0 13.5,3 "/>
<g>
</g>
<g>
</g>
<g>
</g>
<g>
</g>
<g>
</g>
<g>
</g>
<g>
</g>
<g>
</g>
<g>
</g>
<g>
</g>
<g>
</g>
<g>
</g>
<g>
</g>
<g>
</g>
<g>
</g>
</svg>
