<?xml version="1.0" encoding="iso-8859-1"?>
<!-- Generator: Adobe Illustrator 19.0.0, SVG Export Plug-In . SVG Version: 6.00 Build 0)  -->
<svg version="1.1" id="Capa_1" xmlns="http://www.w3.org/2000/svg" xmlns:xlink="http://www.w3.org/1999/xlink" x="0px" y="0px"
	 viewBox="0 0 47 47" style="enable-background:new 0 0 47 47;" xml:space="preserve">
<polygon style="fill:#424A60;" points="46.5,8 46.5,47 0.5,47 0.5,0 38.5,0 "/>
<rect x="7.5" y="26" style="fill:#E7ECED;" width="31" height="21"/>
<rect x="7.5" y="26" style="fill:#EBBA16;" width="31" height="12.037"/>
<rect x="9.5" style="fill:#C7CAC7;" width="26" height="16"/>
<g>
	<path style="fill:#FFFFFF;" d="M12.5,31h7c0.553,0,1-0.447,1-1s-0.447-1-1-1h-7c-0.553,0-1,0.447-1,1S11.947,31,12.5,31z"/>
	<path style="fill:#FFFFFF;" d="M22.5,33h-10c-0.553,0-1,0.447-1,1s0.447,1,1,1h10c0.553,0,1-0.447,1-1S23.053,33,22.5,33z"/>
	<path style="fill:#FFFFFF;" d="M26.21,33.29c-0.37-0.37-1.04-0.37-1.41,0c-0.19,0.189-0.3,0.439-0.3,0.71
		c0,0.27,0.109,0.52,0.29,0.71C24.979,34.89,25.229,35,25.5,35c0.27,0,0.52-0.11,0.71-0.29c0.18-0.19,0.29-0.45,0.29-0.71
		S26.39,33.479,26.21,33.29z"/>
</g>
<rect x="27.5" y="4" style="fill:none;stroke:#424A60;stroke-width:2;stroke-linecap:round;stroke-miterlimit:10;" width="4" height="8"/>
<polygon style="fill:#E7ECED;" points="24.5,16 9.5,16 9.5,0 16.5,0 "/>
<g>
</g>
<g>
</g>
<g>
</g>
<g>
</g>
<g>
</g>
<g>
</g>
<g>
</g>
<g>
</g>
<g>
</g>
<g>
</g>
<g>
</g>
<g>
</g>
<g>
</g>
<g>
</g>
<g>
</g>
</svg>
